<?xml version="1.0" standalone="no"?>
<!DOCTYPE svg PUBLIC "-//W3C//DTD SVG 20010904//EN"
 "http://www.w3.org/TR/2001/REC-SVG-20010904/DTD/svg10.dtd">
<svg version="1.0" xmlns="http://www.w3.org/2000/svg"
 width="1350.000000pt" height="759.000000pt" viewBox="0 0 1350.000000 759.000000"
 preserveAspectRatio="xMidYMid meet">
<metadata>
Created by potrace 1.10, written by Peter Selinger 2001-2011
</metadata>
<g transform="translate(0.000000,759.000000) scale(0.100000,-0.100000)"
fill="#000000" stroke="none">
<path d="M2780 7574 c0 -11 8 -14 27 -12 39 4 42 28 4 28 -21 0 -31 -5 -31
-16z"/>
<path d="M6073 7561 c4 -21 2 -33 -8 -38 -21 -12 -65 -81 -65 -102 0 -18 29
-121 37 -131 2 -2 8 2 13 9 6 11 12 6 24 -18 9 -17 18 -31 19 -31 34 0 135
-27 175 -48 61 -30 82 -54 82 -95 0 -15 7 -30 15 -33 8 -4 15 -12 15 -19 0
-22 22 -29 32 -11 5 9 20 16 33 16 33 0 31 14 -5 60 -16 21 -30 42 -30 47 0
18 -76 83 -98 83 -18 0 -22 6 -22 31 l0 31 -65 -7 c-75 -8 -95 2 -95 44 0 15
-7 36 -15 47 -16 22 -19 62 -5 84 8 12 14 13 42 2 21 -8 36 -8 42 -2 19 19
109 11 161 -15 28 -13 59 -25 70 -25 28 0 41 -11 48 -40 3 -14 21 -40 40 -58
30 -29 36 -31 63 -22 28 10 34 8 67 -24 38 -36 48 -66 22 -66 -8 0 -15 5 -15
10 0 15 -36 12 -53 -4 -7 -8 -24 -16 -37 -18 -13 -1 -25 -9 -28 -17 -3 -10 2
-13 22 -9 37 7 45 -16 16 -47 -17 -18 -29 -23 -48 -18 -23 5 -24 4 -18 -23 12
-47 12 -49 -7 -48 -12 1 -15 -2 -9 -10 18 -22 22 -66 10 -86 -18 -29 -39 -25
-73 16 -21 25 -35 33 -47 29 -14 -6 -12 -12 18 -41 37 -38 42 -60 19 -90 -8
-10 -15 -25 -15 -31 0 -19 37 -16 44 4 5 13 9 14 19 4 9 -10 8 -15 -5 -25 -10
-7 -18 -20 -18 -29 0 -24 -20 -31 -34 -12 -12 17 -13 17 -19 -4 -4 -17 -13
-21 -46 -21 -23 0 -41 -4 -41 -10 0 -5 5 -10 11 -10 5 0 7 -4 4 -10 -3 -5 -24
-10 -46 -10 -37 0 -39 2 -39 30 0 32 -14 40 -24 15 -3 -8 -17 -15 -31 -15 -16
0 -25 6 -25 15 0 8 -4 15 -10 15 -5 0 -10 9 -10 19 0 11 -10 26 -23 33 -35 19
-150 95 -164 108 -19 16 -16 30 7 30 11 0 20 -4 20 -10 0 -5 16 -10 36 -10 31
0 35 3 32 21 -5 33 -36 48 -52 26 -13 -16 -14 -16 -21 10 -15 61 -42 70 -37
12 3 -33 0 -43 -17 -55 -11 -8 -21 -24 -21 -34 0 -18 48 -60 68 -60 12 0 77
-50 146 -112 40 -37 61 -48 86 -48 29 0 32 -2 26 -24 -6 -24 -5 -24 77 -28 85
-4 132 7 157 36 7 9 22 16 34 16 35 0 50 14 31 30 -24 20 -18 29 28 50 89 40
99 70 22 70 -34 0 -47 5 -55 19 -15 28 -13 39 10 46 11 3 31 21 45 39 22 29
24 37 15 62 -16 42 -6 66 56 128 45 45 62 56 89 56 18 0 39 7 46 16 9 11 23
14 46 11 18 -3 35 -2 38 3 11 18 75 20 125 4 58 -19 70 -32 47 -49 -21 -15
-22 -31 -1 -39 26 -10 44 -7 44 8 0 19 16 28 65 37 22 4 74 16 115 26 41 11
101 20 133 22 l57 2 0 -66 c0 -59 3 -68 20 -72 11 -3 23 -17 27 -31 3 -15 15
-41 25 -58 10 -18 17 -37 16 -44 -2 -6 5 -17 15 -23 26 -17 50 17 43 58 -4 20
0 39 10 53 10 15 15 39 12 70 -4 58 16 107 60 150 l33 32 -20 26 c-12 15 -21
34 -21 42 0 19 28 117 45 158 8 18 11 35 8 38 -10 10 -113 7 -113 -3 0 -6 5
-13 10 -16 6 -3 10 -21 10 -39 0 -33 -4 -38 -97 -116 -15 -13 -17 -56 -3 -65
6 -3 10 -26 10 -51 0 -25 5 -54 11 -65 8 -16 6 -23 -13 -39 -28 -22 -34 -19
-41 20 -4 17 -13 30 -22 30 -22 0 -46 67 -45 125 0 58 -9 115 -19 115 -4 0
-17 -10 -29 -23 -24 -25 -30 -73 -10 -79 6 -2 9 -12 5 -21 -5 -12 -18 -17 -50
-17 -27 0 -49 -6 -57 -15 -18 -22 -25 -19 -65 22 -38 39 -44 58 -20 67 8 3 15
14 15 24 0 10 5 23 12 30 9 9 8 12 -6 12 -9 0 -24 -7 -33 -15 -14 -14 -17 -14
-34 1 -15 14 -22 15 -31 6 -17 -17 -55 -15 -62 4 -11 28 -6 49 14 62 11 7 20
21 20 32 0 16 -7 20 -30 20 -20 0 -30 -5 -30 -15 0 -8 -9 -15 -20 -15 -11 0
-23 7 -26 15 -4 10 -21 15 -54 15 -41 0 -49 -3 -55 -22 l-8 -23 -4 23 c-2 12
-10 22 -17 22 -14 0 -38 -58 -26 -65 5 -3 6 -20 3 -39 -5 -31 -3 -34 27 -40
57 -11 60 -9 60 35 l0 42 33 -8 c17 -4 43 -8 56 -10 35 -3 49 -47 26 -81 -11
-16 -14 -35 -10 -51 4 -16 0 -34 -10 -50 -16 -23 -18 -24 -35 -8 -10 9 -24 30
-30 46 -12 27 -14 28 -30 14 -18 -16 -57 -20 -78 -6 -9 5 -11 17 -6 34 8 33
-9 36 -30 5 -12 -17 -18 -20 -28 -10 -7 7 -15 12 -19 12 -13 0 -19 -33 -8 -46
6 -8 8 -14 5 -14 -14 0 -63 29 -76 44 -10 13 -16 14 -27 4 -12 -10 -18 -9 -29
7 -8 10 -14 24 -14 31 0 7 -12 17 -27 23 -74 31 -104 57 -121 106 -6 19 -11
23 -11 12 -1 -12 -7 -17 -18 -15 -10 2 -17 10 -15 16 1 9 -30 12 -116 12
l-118 0 -11 -30 c-15 -39 -46 -41 -41 -3 2 21 -2 29 -16 31 -16 4 -18 0 -13
-27z m1022 -151 c0 -13 -6 -25 -12 -27 -16 -6 -27 21 -19 43 9 23 31 11 31
-16z m543 -54 c3 -59 -8 -86 -34 -86 -8 0 -19 12 -25 26 -8 22 -6 29 11 41 14
10 18 21 14 38 -7 27 3 48 19 42 7 -2 13 -29 15 -61z"/>
<path d="M7370 7568 c0 -13 5 -30 10 -38 14 -23 32 2 24 34 -8 32 -34 35 -34
4z"/>
<path d="M7495 7558 c10 -46 23 -68 40 -68 11 0 15 13 15 50 0 49 -1 50 -31
50 -29 0 -30 -1 -24 -32z"/>
<path d="M7830 7580 c0 -5 10 -15 23 -21 12 -7 27 -19 34 -28 14 -19 29 -8 38
32 7 27 7 27 -44 27 -28 0 -51 -4 -51 -10z"/>
<path d="M6667 7543 c-13 -12 -7 -23 13 -23 11 0 20 7 20 15 0 15 -21 21 -33
8z"/>
<path d="M7258 7533 c-36 -18 -36 -33 0 -33 26 0 62 25 62 43 0 11 -33 6 -62
-10z"/>
<path d="M7953 7529 c-26 -9 -30 -41 -9 -58 12 -10 17 -8 26 9 6 12 10 29 8
39 -2 15 -8 17 -25 10z"/>
<path d="M6624 7484 c-4 -14 -2 -30 5 -37 8 -8 11 -7 11 4 0 7 3 24 6 37 4 13
2 22 -5 22 -6 0 -14 -12 -17 -26z"/>
<path d="M2940 7461 c0 -12 5 -21 10 -21 6 0 10 6 10 14 0 8 -4 18 -10 21 -5
3 -10 -3 -10 -14z"/>
<path d="M7840 7425 c-16 -29 -7 -43 15 -25 8 7 15 9 16 4 0 -5 2 -37 5 -72 3
-35 0 -79 -6 -98 -9 -27 -9 -40 4 -65 9 -17 14 -35 11 -39 -3 -4 11 -20 30
-34 23 -18 35 -35 35 -52 0 -13 5 -24 10 -24 6 0 10 4 10 9 0 5 10 11 22 13
21 3 21 4 -10 39 -43 50 -49 70 -50 181 0 56 -5 106 -13 120 -10 20 -55 68
-63 68 -1 0 -9 -11 -16 -25z"/>
<path d="M7259 7401 c-20 -16 -22 -22 -11 -33 11 -11 17 -9 33 11 20 25 24 41
10 41 -5 0 -19 -9 -32 -19z"/>
<path d="M8134 7395 c-3 -8 -3 -19 1 -25 11 -18 25 -11 25 15 0 27 -17 34 -26
10z"/>
<path d="M3040 7390 c0 -5 7 -10 15 -10 9 0 18 -7 21 -15 7 -16 34 -21 34 -6
0 12 -40 41 -57 41 -7 0 -13 -4 -13 -10z"/>
<path d="M11397 7364 c-4 -4 -3 -12 2 -18 5 -6 11 -22 13 -36 2 -17 5 -20 9
-10 7 18 -14 74 -24 64z"/>
<path d="M6475 7332 c-16 -12 -3 -192 14 -192 3 0 12 10 20 21 9 16 10 24 1
29 -6 4 -11 27 -10 51 1 79 0 88 -8 93 -4 3 -12 2 -17 -2z"/>
<path d="M6036 7228 c-21 -30 -7 -46 15 -17 10 13 19 27 19 32 0 15 -19 6 -34
-15z"/>
<path d="M7733 7191 c-15 -46 -1 -91 42 -137 15 -17 25 -39 25 -58 0 -17 4
-37 9 -44 10 -17 -10 -82 -27 -82 -7 0 -17 -12 -22 -26 -12 -32 -34 -21 -25
13 3 14 1 31 -5 38 -6 7 -9 46 -6 94 2 44 0 81 -3 81 -3 0 -13 -13 -22 -28
-14 -25 -14 -30 -1 -51 14 -20 13 -24 -1 -39 -16 -15 -17 -14 -17 10 0 32 -13
42 -46 34 -19 -5 -24 -13 -24 -39 0 -40 15 -57 52 -57 33 0 36 -12 7 -39 -29
-26 -11 -61 31 -61 23 0 30 -5 30 -19 0 -37 -11 -51 -30 -41 -22 12 -35 -2
-26 -26 4 -10 13 -13 26 -9 18 6 20 2 20 -42 0 -71 15 -87 74 -78 26 4 50 13
52 20 9 23 -24 85 -51 95 -22 8 -25 14 -21 47 2 21 11 55 20 77 9 21 16 42 16
47 0 15 27 10 40 -6 18 -22 55 -15 55 10 0 14 -8 21 -27 23 -31 4 -31 4 -32
136 -1 80 -17 113 -30 61 -10 -40 -21 -22 -24 36 -2 49 -22 99 -40 99 -4 0
-13 -18 -19 -39z"/>
<path d="M5887 7213 c-4 -3 -7 -15 -7 -26 0 -19 1 -20 20 -2 11 10 20 22 20
27 0 10 -24 11 -33 1z"/>
<path d="M9084 7187 c-8 -21 2 -35 16 -21 5 5 6 15 0 24 -8 12 -10 12 -16 -3z"/>
<path d="M6206 7149 c19 -21 48 -26 42 -7 -3 7 -17 15 -32 19 -27 8 -28 7 -10
-12z"/>
<path d="M5850 7131 c0 -11 -4 -23 -10 -26 -12 -8 -13 -52 -1 -59 16 -10 30
19 29 62 0 23 -4 42 -9 42 -5 0 -9 -9 -9 -19z"/>
<path d="M9080 7056 c0 -54 19 -74 22 -22 0 20 1 41 2 48 1 6 -5 13 -11 16 -9
2 -13 -10 -13 -42z"/>
<path d="M7430 7053 c0 -14 19 -38 25 -32 8 8 -5 39 -16 39 -5 0 -9 -3 -9 -7z"/>
<path d="M2810 7036 c0 -17 14 -29 23 -20 8 8 -3 34 -14 34 -5 0 -9 -6 -9 -14z"/>
<path d="M7229 7020 l-24 -19 41 -1 c27 0 44 5 47 14 12 31 -29 36 -64 6z"/>
<path d="M6653 7023 c-28 -6 -45 -26 -37 -47 3 -8 27 -26 52 -38 49 -23 119
-73 138 -96 8 -12 12 -11 23 2 8 9 19 16 26 16 7 0 20 11 29 24 12 18 28 26
63 31 27 3 60 13 75 21 17 9 40 12 65 8 34 -5 40 -3 61 25 l23 31 -23 2 c-13
0 -93 2 -178 4 -164 3 -242 8 -275 16 -11 3 -30 4 -42 1z"/>
<path d="M8009 7003 c-2 -50 2 -68 27 -100 26 -34 48 -42 57 -20 7 18 -16 68
-42 91 -11 11 -21 25 -21 32 0 27 -20 24 -21 -3z"/>
<path d="M6144 7009 c-7 -12 32 -57 41 -47 8 8 -13 58 -24 58 -5 0 -13 -5 -17
-11z"/>
<path d="M5010 6978 c0 -9 5 -20 11 -23 17 -11 20 0 4 21 -13 17 -14 17 -15 2z"/>
<path d="M9240 6970 c-22 -5 -25 -12 -28 -53 -2 -28 1 -47 7 -47 6 0 11 12 11
27 0 15 10 37 22 50 25 27 22 32 -12 23z"/>
<path d="M5759 6916 c-18 -17 -30 -21 -37 -14 -32 32 -37 -48 -6 -97 7 -11 20
-55 30 -97 10 -43 21 -78 25 -78 15 0 39 63 29 75 -7 8 -5 40 7 98 14 74 14
91 3 112 -16 31 -19 31 -51 1z"/>
<path d="M3048 6923 c-10 -2 -18 -9 -18 -14 0 -15 43 -7 48 9 4 12 0 13 -30 5z"/>
<path d="M6641 6841 c-9 -17 -5 -19 39 -25 32 -4 50 -12 50 -20 0 -19 65 -74
95 -82 45 -11 175 0 185 16 19 29 3 35 -100 37 -88 2 -106 5 -124 22 -12 12
-26 21 -30 21 -4 0 -22 11 -40 25 -39 30 -62 32 -75 6z"/>
<path d="M9050 6839 c0 -11 5 -17 10 -14 6 3 10 13 10 21 0 8 -4 14 -10 14 -5
0 -10 -9 -10 -21z"/>
<path d="M8110 6800 c0 -13 8 -24 20 -27 11 -3 20 -11 20 -17 0 -6 13 -16 28
-22 24 -9 30 -19 35 -53 3 -24 8 -45 12 -49 10 -10 38 13 47 39 7 22 2 32 -34
70 -23 24 -48 43 -56 41 -8 -2 -21 3 -30 11 -33 28 -42 29 -42 7z"/>
<path d="M9050 6796 c0 -9 -11 -21 -24 -28 -21 -9 -24 -16 -19 -39 3 -17 0
-35 -8 -45 -11 -14 -10 -18 5 -30 11 -7 22 -11 26 -9 10 6 33 155 26 162 -3 4
-6 -1 -6 -11z"/>
<path d="M7932 6778 c-17 -21 -19 -104 -3 -93 22 13 41 67 30 86 -12 22 -13
23 -27 7z"/>
<path d="M3540 6760 c0 -5 9 -10 20 -10 11 0 20 5 20 10 0 6 -9 10 -20 10 -11
0 -20 -4 -20 -10z"/>
<path d="M2195 6739 c-4 -6 -5 -13 -2 -16 7 -7 27 6 27 18 0 12 -17 12 -25 -2z"/>
<path d="M5630 6733 c0 -9 -6 -24 -14 -32 -22 -25 -36 -157 -19 -180 7 -11 10
-27 7 -35 -3 -9 -1 -22 5 -30 11 -13 12 -29 11 -96 -1 -14 -1 -44 -1 -67 0
-24 -4 -43 -9 -43 -6 0 -10 7 -10 15 0 8 -7 15 -16 15 -12 0 -15 -9 -12 -37 3
-36 2 -38 -27 -38 l-30 0 -1 -70 c0 -38 -3 -77 -7 -85 -3 -8 -7 -30 -10 -47
-3 -26 1 -34 16 -39 11 -3 22 -2 26 4 24 38 89 112 104 117 21 8 22 19 2 35
-21 17 -19 73 3 93 25 23 37 21 49 -5 10 -22 11 -22 19 -4 4 11 2 27 -5 39 -7
11 -14 49 -16 84 -2 44 -8 70 -20 83 -12 13 -16 29 -12 47 5 28 -5 57 -30 81
-19 20 -16 66 7 87 20 18 27 75 14 109 -8 21 -24 20 -24 -1z"/>
<path d="M6623 6733 c-26 -5 -31 -23 -8 -23 8 0 38 -16 65 -35 27 -19 52 -35
55 -35 3 0 5 18 5 40 0 55 -32 69 -117 53z"/>
<path d="M5846 6701 c-4 -5 -3 -16 0 -25 4 -10 -2 -17 -20 -22 -14 -3 -26 -9
-26 -14 0 -9 34 -40 45 -40 5 0 17 -8 27 -17 15 -14 21 -15 27 -4 12 18 52 10
65 -14 6 -11 21 -34 33 -52 13 -17 23 -41 23 -52 0 -16 6 -21 26 -21 14 0 46
-13 71 -30 24 -16 50 -30 58 -30 8 0 31 -15 51 -34 l38 -35 -14 -41 c-19 -57
-35 -77 -53 -65 -8 6 -26 18 -41 29 -14 10 -32 16 -40 13 -24 -9 -7 -42 34
-68 29 -19 36 -29 29 -40 -14 -22 -11 -27 21 -44 28 -14 30 -19 30 -71 0 -66
23 -72 28 -8 5 56 19 65 47 29 23 -28 27 -29 87 -26 97 6 142 1 175 -17 34
-19 123 -16 139 6 9 12 16 14 24 6 12 -12 -20 -39 -55 -45 -11 -3 -21 -12 -23
-22 -3 -12 3 -17 22 -17 17 0 34 -12 53 -35 30 -38 44 -43 62 -22 8 11 5 16
-14 25 -14 6 -25 16 -25 22 0 12 30 13 49 1 18 -11 49 2 72 31 14 18 18 18 57
5 41 -14 43 -14 54 7 15 28 29 37 50 30 26 -8 89 7 95 22 2 7 -8 29 -24 49
-20 26 -35 35 -53 33 -14 -1 -45 11 -70 27 -59 38 -75 38 -75 0 0 -23 5 -31
21 -33 30 -4 68 -47 60 -67 -5 -14 -14 -15 -49 -10 -23 4 -50 11 -59 16 -9 5
-34 9 -55 9 -21 0 -53 9 -71 20 -18 11 -43 20 -56 20 -12 0 -37 7 -55 16 -30
15 -36 15 -75 0 -58 -22 -89 -20 -133 10 -29 20 -46 24 -73 20 -29 -5 -39 -1
-62 25 -29 31 -36 63 -17 75 6 3 8 20 5 38 -9 52 -1 56 94 44 53 -6 89 -16 97
-25 11 -14 14 -14 27 0 22 22 20 37 -5 37 -19 0 -21 4 -15 31 3 17 6 40 6 50
0 35 44 22 88 -26 28 -31 49 -45 66 -45 15 0 37 -12 53 -29 16 -15 41 -35 57
-43 l29 -15 -35 -7 c-47 -9 -62 -27 -43 -52 12 -17 17 -17 35 -6 19 12 27 10
61 -14 48 -33 76 -20 30 13 -15 12 -31 31 -34 43 -5 20 -3 22 23 16 20 -3 34
0 46 11 13 13 20 14 35 5 10 -7 45 -11 76 -11 32 1 48 4 36 6 -14 3 -23 12
-23 23 0 17 11 18 163 17 120 0 168 3 187 13 14 8 48 17 75 20 64 7 60 25 -5
26 -53 1 -75 13 -75 42 0 20 -32 29 -48 13 -9 -9 -8 -14 3 -22 13 -8 12 -12
-5 -25 -18 -13 -21 -13 -32 1 -10 15 -14 15 -35 2 -17 -10 -43 -13 -96 -9 -68
4 -74 6 -88 33 -11 21 -22 29 -42 29 -16 0 -32 4 -37 9 -15 15 -88 23 -105 12
-12 -8 -12 -13 4 -30 11 -12 25 -21 31 -21 7 0 16 -8 19 -17 8 -21 -10 -36
-71 -59 -43 -17 -44 -17 -68 6 l-24 23 39 44 c33 38 38 49 33 78 -5 29 -3 34
18 37 32 4 39 44 10 53 -41 13 -95 -41 -71 -71 15 -17 6 -44 -14 -44 -31 0
-116 51 -116 69 0 29 -26 44 -63 38 -28 -4 -40 1 -78 35 -24 22 -43 46 -41 54
2 8 -2 14 -8 14 -5 0 -10 -6 -10 -13 0 -26 -25 -66 -45 -71 -27 -7 -11 -20 28
-20 25 -1 32 -5 32 -21 0 -18 -6 -20 -48 -17 -41 3 -49 0 -54 -16 -2 -11 -25
-30 -49 -42 -24 -13 -44 -29 -44 -37 0 -20 -12 -16 -55 21 l-40 35 23 21 c17
16 30 19 56 15 32 -6 66 12 66 35 0 10 -66 60 -80 60 -6 0 -24 7 -40 15 -27
14 -60 12 -60 -5 0 -4 9 -10 20 -13 29 -7 24 -25 -7 -29 -24 -3 -28 -7 -25
-30 3 -24 0 -28 -22 -28 -19 0 -32 9 -46 33 l-20 32 25 3 c21 3 24 8 21 34 -3
31 -10 36 -114 87 -44 22 -107 28 -116 12z m569 -251 c-3 -5 -15 -10 -25 -10
-10 0 -22 5 -25 10 -4 6 7 10 25 10 18 0 29 -4 25 -10z m-36 -75 c3 -15 -2
-17 -36 -13 -22 3 -47 2 -56 -3 -10 -6 -18 -5 -23 2 -8 13 14 29 31 23 6 -3
22 0 36 5 31 12 43 9 48 -14z m622 -48 c-13 -13 -26 -3 -16 12 3 6 11 8 17 5
6 -4 6 -10 -1 -17z m29 -287 c0 -11 -4 -20 -10 -20 -5 0 -10 9 -10 20 0 11 5
20 10 20 6 0 10 -9 10 -20z"/>
<path d="M4020 6670 c0 -5 14 -10 31 -10 17 0 28 4 24 10 -3 6 -17 10 -31 10
-13 0 -24 -4 -24 -10z"/>
<path d="M8347 6653 c-11 -10 -8 -43 3 -43 6 0 10 11 10 25 0 26 -2 29 -13 18z"/>
<path d="M8046 6643 c-3 -4 -6 -14 -6 -24 0 -29 -21 -34 -40 -9 -23 30 -44 19
-28 -15 6 -14 15 -25 19 -25 4 0 21 -22 37 -48 26 -43 29 -57 28 -121 -1 -49
-6 -75 -15 -80 -11 -7 -13 -29 -9 -100 4 -70 2 -93 -8 -102 -18 -14 -37 0 -53
39 -11 27 -13 28 -84 24 -40 -2 -82 -8 -95 -14 -18 -10 -26 -8 -47 12 -26 24
-115 45 -126 29 -6 -11 -195 -15 -225 -6 -27 9 -90 -43 -72 -61 9 -9 8 -18 -2
-37 -16 -29 -6 -47 13 -22 7 10 35 21 66 26 29 5 57 15 62 22 7 11 13 11 39
-4 30 -18 30 -18 41 6 6 14 22 30 35 36 20 9 25 7 34 -9 11 -21 60 -28 60 -10
0 21 34 8 64 -25 l32 -35 27 31 c16 18 33 29 41 26 8 -3 42 -9 76 -13 49 -5
65 -12 81 -33 17 -21 29 -26 67 -26 40 0 47 -3 53 -25 12 -43 10 -125 -5 -145
-11 -16 -18 -17 -53 -8 -35 9 -46 7 -72 -9 -34 -22 -40 -42 -15 -52 10 -4 13
-13 9 -25 -5 -16 1 -20 32 -24 43 -5 64 6 45 25 -19 19 -14 30 9 23 15 -5 22
-2 26 14 3 12 11 21 18 21 17 0 27 -43 19 -76 -5 -18 0 -32 17 -50 12 -13 29
-24 36 -24 7 0 18 -12 24 -27 23 -58 64 -152 87 -201 12 -24 16 -64 17 -141 0
-109 9 -141 41 -141 8 0 14 -4 14 -8 0 -11 66 -42 89 -42 21 0 69 -45 128
-119 34 -42 40 -57 34 -74 -7 -18 -15 -21 -47 -19 -21 2 -44 8 -51 14 -9 7
-23 6 -45 -2 -18 -6 -116 -16 -218 -22 -235 -12 -239 -13 -251 -25 -7 -7 2
-19 30 -39 22 -16 44 -38 47 -49 8 -27 44 -65 61 -65 18 0 17 25 -2 40 -8 7
-15 19 -15 27 0 20 27 28 45 13 9 -7 19 -10 22 -6 4 4 2 11 -6 15 -11 7 -11
12 0 29 12 19 21 21 89 17 41 -2 110 2 152 8 68 9 82 8 118 -8 50 -22 50 -48
1 -55 l-33 -5 21 -19 c20 -18 22 -18 39 -3 10 10 26 17 35 17 22 0 22 29 0 46
-14 10 -16 16 -7 31 9 14 23 17 58 16 61 -4 92 -21 152 -82 27 -28 54 -51 61
-51 18 0 133 -71 133 -82 0 -5 -13 -21 -29 -36 -15 -15 -31 -39 -35 -54 -5
-23 -37 -55 -115 -116 -21 -16 -23 -22 -14 -48 7 -23 16 -30 41 -32 36 -4 72
13 72 33 0 7 13 40 29 72 16 32 39 86 52 120 25 68 57 95 87 77 9 -6 18 -23
20 -38 2 -14 9 -26 16 -26 7 0 21 -8 30 -19 16 -18 15 -20 -29 -57 -41 -33
-49 -36 -67 -25 -11 7 -21 11 -22 9 -1 -2 -8 -21 -15 -43 -13 -37 -12 -40 8
-53 28 -19 27 -29 -9 -59 -22 -18 -30 -33 -30 -59 0 -24 -6 -37 -21 -44 -11
-7 -21 -10 -22 -8 -27 53 -51 58 -55 12 -3 -30 -1 -31 39 -37 64 -8 119 26
119 74 0 18 7 32 19 39 31 16 41 12 41 -15 0 -14 -4 -25 -9 -25 -5 0 -11 -7
-15 -15 -3 -9 0 -15 9 -15 8 0 15 6 15 14 0 8 13 17 30 21 39 9 44 19 24 50
-9 14 -14 34 -11 47 4 12 1 28 -5 35 -12 15 6 43 28 43 8 0 14 8 14 18 0 10 7
27 15 39 10 14 12 24 5 28 -6 3 -7 22 -4 43 5 34 3 38 -28 54 -18 9 -41 19
-52 22 -12 4 -17 13 -13 26 4 16 0 20 -22 20 -44 0 -82 22 -88 52 -4 20 -15
30 -39 38 -27 9 -34 17 -34 37 0 22 -3 25 -27 20 -17 -3 -42 2 -63 14 -19 10
-50 25 -68 34 -44 21 -84 64 -78 84 3 9 8 31 11 49 7 32 6 34 -16 27 -57 -18
-147 12 -133 45 3 8 9 34 11 58 5 33 2 42 -10 42 -8 0 -18 -8 -21 -17 -8 -19
-17 -11 -34 30 -11 25 -9 31 13 53 28 28 41 25 56 -13 13 -34 29 -19 29 28 0
37 -1 39 -25 33 -16 -4 -25 -2 -25 6 0 7 12 10 33 8 27 -2 33 1 35 19 2 12 11
24 20 27 9 3 23 15 30 27 11 17 11 25 -3 45 -8 13 -22 24 -31 24 -25 0 -84
-28 -84 -40 0 -22 -53 -122 -67 -127 -32 -12 -47 11 -44 68 2 42 -4 65 -24
104 -36 68 -43 75 -73 75 -23 0 -24 -2 -18 -42 4 -24 14 -46 21 -51 8 -4 15
-18 15 -31 0 -13 13 -50 30 -82 16 -32 30 -63 30 -68 0 -5 7 -18 16 -28 19
-20 8 -42 -27 -53 -10 -4 -19 -12 -19 -18 0 -7 -5 -19 -10 -27 -9 -13 -11 -13
-20 0 -5 8 -10 32 -10 52 0 20 -4 40 -10 43 -13 8 -13 58 0 71 11 11 -9 76
-46 149 -16 30 -24 62 -22 80 3 27 6 30 37 27 38 -3 61 12 61 39 0 10 9 23 20
29 16 8 19 17 14 33 -11 38 -22 42 -54 19 -36 -27 -42 -27 -65 -2 -21 24 -14
47 17 52 15 2 24 11 26 26 4 26 -22 31 -32 6 -4 -10 -13 -13 -25 -9 -14 4 -21
0 -26 -14 -8 -26 -43 -34 -54 -13 -21 42 -21 69 0 88 12 10 28 31 35 47 13 24
13 29 0 43 -12 11 -13 21 -6 40 14 37 13 43 -15 50 -31 8 -24 20 21 39 27 11
34 20 34 40 0 18 -6 29 -19 32 -26 7 -35 48 -16 76 8 12 15 31 15 44 0 12 5
25 10 28 6 3 10 26 10 51 0 28 -4 43 -10 39 -5 -3 -10 -17 -10 -30 0 -40 -11
-55 -40 -55 -16 0 -30 -7 -34 -16 -11 -28 -6 -71 9 -84 9 -7 15 -29 15 -54 0
-35 -5 -46 -30 -64 -56 -42 -130 -17 -82 28 27 26 33 58 28 174 -3 90 -2 99
15 103 13 4 19 14 19 33 0 15 7 33 15 40 19 16 19 29 -1 68 -11 23 -22 32 -40
32 -14 0 -27 6 -30 14 -6 16 -29 28 -38 19z m74 -142 c0 -23 -16 -36 -25 -21
-9 14 1 40 15 40 5 0 10 -9 10 -19z"/>
<path d="M9020 6583 c0 -46 8 -73 21 -73 11 0 0 91 -12 105 -5 5 -9 -8 -9 -32z"/>
<path d="M5727 6603 c-11 -10 -8 -43 3 -43 6 0 10 11 10 25 0 26 -2 29 -13 18z"/>
<path d="M9180 6587 c0 -8 11 -24 25 -37 21 -20 25 -21 25 -6 0 26 -19 56 -35
56 -8 0 -15 -6 -15 -13z"/>
<path d="M1747 6583 c-9 -9 12 -33 29 -33 17 0 18 12 2 28 -14 14 -22 15 -31
5z"/>
<path d="M8615 6570 c-3 -5 -4 -14 0 -20 8 -13 35 -1 35 16 0 16 -26 19 -35 4z"/>
<path d="M7887 6543 c-9 -44 3 -83 37 -117 17 -18 39 -42 48 -54 34 -42 48
-23 27 36 -8 22 -16 31 -30 29 -21 -2 -59 47 -46 60 5 4 12 1 17 -7 18 -29 21
0 3 32 -30 55 -48 62 -56 21z"/>
<path d="M6941 6524 l-22 -37 25 -25 25 -26 10 26 c32 84 3 131 -38 62z"/>
<path d="M12010 6520 c6 -11 15 -20 20 -20 17 0 11 15 -11 28 -19 12 -19 11
-9 -8z"/>
<path d="M5758 6523 c-22 -5 -23 -36 -3 -53 8 -7 13 -22 10 -34 -6 -24 55 -96
81 -96 8 0 12 -4 9 -10 -3 -5 -15 -10 -26 -10 -26 0 -24 -6 12 -39 27 -25 30
-33 24 -61 -6 -29 -10 -32 -39 -28 -17 3 -38 8 -47 12 -11 5 -21 -1 -33 -18
-16 -25 -15 -27 6 -48 23 -22 55 -77 78 -130 7 -16 16 -28 21 -28 16 0 10 52
-7 65 -12 8 -15 20 -10 38 9 37 52 38 66 2 12 -31 26 -32 36 -3 4 15 1 26 -12
36 -11 7 -28 20 -39 28 -20 15 -19 16 12 43 30 25 32 29 18 47 -43 57 18 77
73 24 37 -35 40 -35 70 -10 29 24 21 40 -18 40 -16 0 -35 7 -42 16 -42 51 -59
64 -88 64 -24 0 -32 6 -40 28 -19 53 -74 134 -89 131 -3 -1 -14 -3 -23 -6z"/>
<path d="M7781 6508 c-5 -14 -4 -31 2 -43 17 -33 50 -75 59 -75 12 0 10 78 -3
85 -5 4 -14 18 -19 31 -12 30 -28 31 -39 2z"/>
<path d="M8400 6518 c0 -22 14 -36 44 -44 22 -5 28 -4 24 7 -3 8 -13 13 -22
11 -11 -2 -20 5 -23 17 -6 23 -23 29 -23 9z"/>
<path d="M8234 6499 c-16 -17 -16 -22 -4 -29 8 -6 20 -10 27 -10 12 0 43 38
43 52 0 16 -48 7 -66 -13z"/>
<path d="M4040 6490 c0 -5 11 -10 25 -10 14 0 25 5 25 10 0 6 -11 10 -25 10
-14 0 -25 -4 -25 -10z"/>
<path d="M7626 6466 c-8 -20 -19 -36 -25 -36 -5 0 -11 -12 -13 -26 -2 -22 -12
-30 -55 -47 -59 -22 -61 -33 -6 -40 40 -4 73 7 86 29 11 20 24 17 30 -6 3 -11
12 -20 20 -20 23 0 29 16 12 30 -17 14 -3 40 22 40 11 0 12 4 2 23 -7 12 -15
35 -19 52 -9 44 -36 44 -54 1z"/>
<path d="M9050 6471 c0 -19 6 -34 15 -38 23 -8 30 4 19 34 -13 39 -34 41 -34
4z"/>
<path d="M8362 6447 c-21 -22 -29 -57 -16 -70 5 -4 54 78 54 91 0 9 -20 -2
-38 -21z"/>
<path d="M9213 6448 c2 -7 10 -13 17 -13 7 0 15 6 18 13 2 7 -5 12 -18 12 -13
0 -20 -5 -17 -12z"/>
<path d="M1957 6404 c-10 -11 3 -24 24 -24 23 0 25 15 3 24 -19 7 -19 7 -27 0z"/>
<path d="M4141 6385 c-1 -38 24 -76 44 -69 22 9 18 42 -6 49 -11 4 -24 16 -29
28 -8 20 -9 19 -9 -8z"/>
<path d="M9210 6391 c0 -11 5 -23 10 -26 6 -4 10 5 10 19 0 14 -4 26 -10 26
-5 0 -10 -9 -10 -19z"/>
<path d="M7762 6364 c1 -9 9 -19 16 -22 9 -3 13 2 10 14 -1 9 -9 19 -16 22 -9
3 -13 -2 -10 -14z"/>
<path d="M8390 6367 c-30 -14 -41 -28 -35 -44 2 -7 -3 -26 -12 -42 -13 -22
-15 -34 -7 -52 10 -22 12 -20 18 23 6 41 10 47 37 53 16 4 29 13 29 21 0 22
17 17 23 -7 3 -12 10 -18 16 -14 16 9 13 35 -4 41 -8 4 -15 12 -15 20 0 17
-16 17 -50 1z"/>
<path d="M7874 6329 c-4 -7 -21 -9 -40 -6 -43 7 -45 -9 -5 -47 25 -24 31 -26
49 -15 17 10 23 10 36 0 22 -18 22 4 0 47 -16 33 -28 40 -40 21z"/>
<path d="M5130 6311 c0 -11 5 -23 10 -26 6 -4 10 5 10 19 0 14 -4 26 -10 26
-5 0 -10 -9 -10 -19z"/>
<path d="M2040 6310 c0 -5 10 -10 23 -10 18 0 19 2 7 10 -19 13 -30 13 -30 0z"/>
<path d="M5520 6275 c0 -19 5 -35 10 -35 6 0 10 16 10 35 0 19 -4 35 -10 35
-5 0 -10 -16 -10 -35z"/>
<path d="M8885 6293 c4 -10 13 -31 19 -48 6 -16 14 -32 17 -35 3 -3 8 -13 12
-22 7 -21 37 -24 37 -5 0 8 -9 22 -20 32 -11 10 -20 25 -20 33 0 8 -12 26 -26
39 -21 19 -25 20 -19 6z"/>
<path d="M4240 6240 c20 -13 40 -13 40 0 0 6 -12 10 -27 10 -22 0 -25 -2 -13
-10z"/>
<path d="M4380 6225 c0 -8 5 -15 10 -15 6 0 10 7 10 15 0 8 -4 15 -10 15 -5 0
-10 -7 -10 -15z"/>
<path d="M7040 6220 c0 -14 46 -23 78 -15 25 7 25 8 7 15 -28 12 -85 12 -85 0z"/>
<path d="M7173 6212 c-6 -4 -14 -19 -18 -34 -6 -23 -2 -29 38 -52 24 -14 54
-26 66 -26 21 0 23 4 17 33 -4 22 -1 40 9 52 8 11 15 22 15 25 0 8 -114 10
-127 2z"/>
<path d="M5329 6208 c0 -2 -1 -32 -3 -68 -1 -45 4 -79 17 -109 19 -42 19 -46
2 -100 -37 -119 -46 -139 -87 -180 -32 -34 -39 -47 -32 -60 11 -18 7 -61 -6
-61 -4 0 -10 9 -13 19 -2 10 -14 24 -27 31 -20 11 -21 10 -18 -22 3 -32 1 -33
-42 -44 -56 -13 -73 -47 -46 -88 22 -34 38 -32 56 6 10 21 26 36 48 43 18 6
36 15 40 21 7 11 54 25 85 25 12 0 20 10 24 30 3 17 14 36 24 42 11 7 19 19
19 27 0 8 14 53 30 100 35 101 36 114 10 165 -11 22 -20 47 -20 57 0 10 -9 35
-20 55 -11 21 -20 52 -20 70 0 17 -4 35 -10 38 -5 3 -10 5 -11 3z"/>
<path d="M8504 6187 c-2 -7 -1 -24 4 -37 l9 -24 17 27 c10 14 15 31 11 37 -9
14 -35 13 -41 -3z"/>
<path d="M4430 6158 c0 -7 5 -20 10 -28 12 -20 33 0 24 23 -7 20 -34 23 -34 5z"/>
<path d="M8976 6161 c-4 -5 -4 -15 -1 -23 7 -18 65 -52 65 -39 0 6 -5 11 -11
11 -7 0 -8 11 -4 30 6 27 4 30 -19 30 -13 0 -27 -4 -30 -9z"/>
<path d="M8620 6141 c0 -28 17 -35 29 -13 11 21 6 32 -16 32 -7 0 -13 -9 -13
-19z"/>
<path d="M8510 6086 c0 -34 -23 -66 -70 -98 -27 -17 -27 -16 26 -33 15 -5 15
-7 -1 -25 -18 -19 -17 -20 8 -20 14 0 32 7 40 15 17 17 33 132 23 170 -9 36
-26 31 -26 -9z"/>
<path d="M8750 6095 c0 -8 5 -15 10 -15 6 0 10 7 10 15 0 8 -4 15 -10 15 -5 0
-10 -7 -10 -15z"/>
<path d="M5970 6066 c0 -9 7 -16 16 -16 9 0 14 5 12 12 -6 18 -28 21 -28 4z"/>
<path d="M7540 6071 c0 -16 -64 -34 -109 -32 -36 3 -47 -1 -61 -20 -16 -21
-20 -21 -49 -9 -36 15 -55 4 -49 -26 3 -15 13 -19 53 -21 28 -1 73 -3 102 -5
31 -2 51 0 50 7 -1 6 24 11 56 13 55 3 58 2 52 -17 -5 -15 1 -23 29 -36 19 -9
43 -15 52 -13 13 2 7 10 -24 32 -33 22 -40 32 -33 45 7 11 4 22 -7 34 -13 15
-14 20 -3 26 8 5 10 14 7 20 -8 13 -66 15 -66 2z"/>
<path d="M12263 6058 c-9 -21 -2 -82 10 -94 10 -10 42 5 55 26 13 22 6 44 -24
74 -21 21 -29 20 -41 -6z"/>
<path d="M8753 6048 c2 -7 12 -13 22 -13 10 0 20 6 23 13 2 7 -6 12 -23 12
-17 0 -25 -5 -22 -12z"/>
<path d="M8030 6035 c0 -8 5 -15 10 -15 6 0 10 7 10 15 0 8 -4 15 -10 15 -5 0
-10 -7 -10 -15z"/>
<path d="M7675 6012 c-23 -4 -35 -10 -28 -15 6 -4 19 -4 27 -1 10 4 25 -1 36
-11 11 -10 42 -20 69 -23 43 -4 51 -8 61 -33 14 -32 31 -37 50 -15 6 8 18 12
25 9 20 -7 32 46 14 58 -20 12 -76 11 -84 -2 -5 -7 -15 -3 -30 11 -25 24 -77
32 -140 22z"/>
<path d="M6055 5993 c-51 -7 -59 -11 -46 -27 19 -23 57 -27 97 -10 36 15 37
17 19 30 -10 8 -24 13 -29 13 -6 -1 -24 -4 -41 -6z"/>
<path d="M5655 5981 c-7 -12 26 -31 54 -31 11 0 32 -11 47 -25 28 -26 83 -41
109 -31 19 7 29 31 21 52 -5 13 -9 14 -21 4 -23 -19 -105 -7 -126 19 -18 22
-73 29 -84 12z"/>
<path d="M8939 5961 c-13 -10 -44 -28 -68 -40 l-43 -22 -22 20 c-26 24 -56 28
-56 6 0 -8 -11 -21 -23 -30 -19 -12 -30 -13 -56 -4 -25 9 -35 9 -44 0 -9 -10
-7 -17 12 -32 28 -23 84 -25 105 -4 16 17 44 19 65 6 10 -6 31 0 66 20 28 16
63 29 77 29 32 0 35 4 30 40 -5 35 -11 37 -43 11z"/>
<path d="M6165 5950 c-4 -6 -1 -26 5 -45 12 -36 26 -42 89 -36 13 1 31 -4 40
-13 15 -13 46 -20 79 -17 28 2 9 32 -35 52 -27 12 -52 28 -56 35 -6 10 -13 11
-26 4 -14 -7 -23 -5 -36 10 -19 22 -50 26 -60 10z"/>
<path d="M6530 5945 c-14 -17 -75 -20 -85 -5 -3 6 -13 10 -21 10 -25 0 -15
-37 17 -64 32 -27 54 -33 64 -16 3 5 24 14 45 20 39 11 46 22 34 54 -8 20 -38
21 -54 1z"/>
<path d="M5547 5894 c-4 -4 17 -25 46 -48 28 -22 62 -53 75 -68 13 -16 34 -28
46 -28 12 0 27 -5 34 -12 6 -6 14 -9 18 -6 6 7 -116 132 -143 146 -27 14 -69
22 -76 16z"/>
<path d="M5720 5885 c0 -29 43 -75 74 -81 63 -11 100 -64 45 -64 -14 0 -19 -7
-19 -25 0 -20 5 -25 25 -25 13 0 28 6 32 14 4 7 27 17 49 20 36 6 42 5 47 -13
4 -16 13 -21 37 -21 41 0 110 -20 110 -32 0 -11 -45 -28 -75 -28 -14 0 -26 7
-29 18 -6 18 -49 42 -77 42 -28 0 -32 -19 -6 -29 13 -5 45 -30 73 -55 49 -46
49 -46 49 -110 0 -36 4 -68 9 -73 4 -4 19 5 32 20 27 32 32 77 9 77 -28 0 -17
39 13 46 47 10 52 13 61 36 8 22 9 21 26 -14 19 -38 37 -48 93 -48 29 0 32 3
32 29 l0 30 38 -13 c31 -11 37 -18 35 -40 -2 -23 2 -27 20 -24 14 2 21 9 19
20 -4 25 18 34 25 9 4 -16 11 -19 33 -15 15 4 31 1 34 -5 9 -14 49 -14 62 -1
7 7 20 6 40 -5 16 -8 43 -15 59 -15 42 -1 89 -41 80 -69 -8 -27 -54 -40 -69
-19 -6 8 -28 18 -48 22 -21 4 -38 11 -38 16 0 4 -39 8 -87 8 -49 0 -122 3
-163 6 -76 7 -109 -1 -95 -24 7 -12 47 -10 90 4 15 5 31 -3 60 -29 33 -31 44
-36 70 -30 45 9 62 8 168 -15 98 -22 167 -52 167 -74 0 -6 9 -17 19 -23 25
-16 39 1 49 58 l8 44 69 2 c52 2 74 -2 87 -14 18 -16 31 -17 178 -11 52 2 65
0 65 -12 0 -9 -14 -17 -38 -21 -48 -8 -57 -17 -33 -35 26 -19 158 -12 235 12
25 8 -9 34 -45 34 -43 0 -44 17 -3 59 21 22 28 36 21 43 -6 6 -52 11 -104 13
-107 3 -219 22 -233 40 -24 29 -65 39 -175 43 -119 5 -131 9 -198 66 -21 19
-80 26 -204 26 -16 0 -28 4 -28 9 0 5 -26 9 -57 10 -32 0 -76 1 -98 3 -33 3
-42 -1 -50 -19 -5 -13 -13 -23 -18 -23 -4 0 -11 10 -16 23 -5 12 -24 33 -42
47 -35 25 -134 70 -156 70 -15 0 -46 67 -44 95 2 33 -11 42 -69 47 l-54 5 27
-21 c15 -12 27 -28 27 -35 0 -28 -184 16 -204 48 -10 16 -26 13 -26 -4z m225
-85 c-3 -5 -13 -10 -21 -10 -8 0 -12 5 -9 10 3 6 13 10 21 10 8 0 12 -4 9 -10z
m942 -324 c12 0 25 -4 29 -8 4 -5 24 -8 45 -8 43 0 69 -8 69 -21 0 -5 -43 -9
-96 -9 -87 0 -97 2 -115 23 -27 32 -23 40 14 32 17 -4 42 -8 54 -9z m-37 -108
c0 -13 -23 -5 -28 10 -2 7 2 10 12 6 9 -3 16 -11 16 -16z"/>
<path d="M4465 5840 c-7 -23 10 -60 29 -60 9 0 13 13 13 40 0 32 -3 40 -18 40
-10 0 -20 -9 -24 -20z"/>
<path d="M12140 5831 c0 -17 5 -31 10 -31 6 0 10 11 10 24 0 14 -4 28 -10 31
-6 4 -10 -7 -10 -24z"/>
<path d="M4589 5830 c-1 -8 0 -30 1 -47 1 -27 -3 -35 -25 -43 -23 -9 -24 -12
-14 -32 l12 -22 17 22 c22 27 36 110 21 125 -8 8 -11 7 -12 -3z"/>
<path d="M6212 5828 c-14 -14 -16 -88 -3 -88 16 0 53 59 49 77 -4 22 -29 28
-46 11z"/>
<path d="M7503 5833 c-35 -7 -28 -24 27 -71 35 -30 56 -42 68 -37 16 6 15 8
-3 21 -16 12 -17 18 -8 33 22 35 -26 66 -84 54z"/>
<path d="M7795 5830 c-10 -16 3 -28 38 -35 17 -4 47 -21 65 -38 27 -27 34 -29
42 -17 18 27 6 45 -50 72 -58 29 -85 34 -95 18z"/>
<path d="M6667 5812 c-21 -23 -22 -46 -2 -62 8 -7 15 -18 15 -24 0 -12 30 -46
80 -90 25 -22 31 -24 25 -10 -4 10 -9 50 -10 87 -3 77 -8 86 -35 69 -22 -13
-37 1 -32 31 4 22 -20 22 -41 -1z"/>
<path d="M7343 5809 c-37 -11 -42 -24 -14 -39 31 -16 84 -11 111 10 14 10 23
21 20 23 -12 10 -88 14 -117 6z"/>
<path d="M7650 5800 c-48 -7 -49 -9 -10 -15 14 -2 39 -7 55 -10 38 -7 68 10
45 25 -16 11 -22 11 -90 0z"/>
<path d="M12291 5801 c-19 -12 -6 -41 19 -41 16 0 21 5 18 22 -3 25 -17 32
-37 19z"/>
<path d="M5523 5740 c0 -30 2 -43 4 -27 2 15 2 39 0 55 -2 15 -4 2 -4 -28z"/>
<path d="M5016 5773 c-9 -10 -7 -43 3 -43 11 0 21 39 11 45 -4 2 -10 2 -14 -2z"/>
<path d="M3385 5738 c-10 -26 2 -55 17 -40 8 8 8 18 1 34 -10 21 -12 21 -18 6z"/>
<path d="M8696 5734 c-3 -9 -6 -27 -6 -41 0 -22 3 -24 25 -19 15 4 37 0 55 -9
35 -18 37 -10 9 45 -17 32 -26 40 -49 40 -16 0 -30 -7 -34 -16z"/>
<path d="M4870 5725 c0 -8 5 -15 10 -15 6 0 10 7 10 15 0 8 -4 15 -10 15 -5 0
-10 -7 -10 -15z"/>
<path d="M8446 5661 c-3 -4 2 -18 9 -32 8 -13 22 -39 31 -58 11 -24 18 -31 24
-22 9 15 2 49 -11 57 -5 3 -9 16 -9 28 0 23 -34 43 -44 27z"/>
<path d="M5047 5653 c-3 -5 -2 -15 2 -22 7 -10 10 -10 16 -1 4 6 3 16 -3 22
-5 5 -12 6 -15 1z"/>
<path d="M7937 5653 c-7 -12 11 -53 22 -53 16 0 23 18 16 40 -6 20 -30 27 -38
13z"/>
<path d="M8610 5630 c0 -19 3 -21 12 -12 9 9 9 15 0 24 -9 9 -12 7 -12 -12z"/>
<path d="M4920 5595 c0 -15 4 -24 10 -20 6 3 10 12 10 20 0 8 -4 17 -10 20 -6
4 -10 -5 -10 -20z"/>
<path d="M7222 5563 c3 -19 47 -29 76 -18 15 6 15 8 -2 21 -29 21 -78 19 -74
-3z"/>
<path d="M5485 5550 c-3 -5 -26 -10 -50 -10 -24 0 -46 -4 -49 -9 -9 -14 37
-48 94 -70 61 -23 95 -27 106 -10 8 14 -16 59 -32 59 -7 0 -21 11 -32 25 -22
27 -28 30 -37 15z"/>
<path d="M4465 5530 c-28 -7 -27 -8 13 -9 23 0 42 4 42 9 0 11 -11 11 -55 0z"/>
<path d="M6141 5420 c0 -49 3 -90 7 -89 4 0 19 24 34 53 25 51 26 53 7 65 -23
14 -16 31 12 31 10 0 19 7 19 15 0 11 -11 15 -40 15 l-39 0 0 -90z"/>
<path d="M5220 5470 c0 -10 109 -74 115 -68 3 2 -8 18 -23 35 -26 29 -92 53
-92 33z"/>
<path d="M7620 5470 c-66 -9 -90 -18 -90 -34 0 -17 54 -46 87 -46 33 1 86 43
81 67 -4 21 -11 22 -78 13z"/>
<path d="M5652 5452 c-43 -29 -28 -34 94 -33 29 0 47 -6 59 -20 10 -10 26 -19
37 -19 11 0 18 -7 18 -18 0 -10 15 -25 38 -36 20 -10 45 -22 54 -27 28 -14 29
-12 26 34 -2 29 -7 41 -17 39 -29 -6 -82 20 -96 49 -14 26 -20 29 -58 27 -23
0 -63 3 -88 9 -35 8 -50 7 -67 -5z"/>
<path d="M3945 5445 l-30 -13 46 -1 c38 -1 49 -6 67 -31 23 -30 52 -40 52 -17
0 17 -10 29 -44 55 -33 25 -49 27 -91 7z"/>
<path d="M3870 5420 c0 -5 9 -10 20 -10 11 0 20 5 20 10 0 6 -9 10 -20 10 -11
0 -20 -4 -20 -10z"/>
<path d="M5016 5423 c-13 -14 -5 -33 15 -33 15 0 20 -6 19 -22 -3 -37 -1 -41
15 -28 15 12 35 6 35 -12 0 -5 11 -23 25 -40 14 -16 25 -38 25 -48 0 -10 7
-31 15 -46 8 -16 15 -39 15 -51 0 -31 42 -92 63 -93 19 0 21 -14 18 -125 -2
-66 -24 -135 -43 -135 -10 0 -9 -79 2 -105 7 -19 9 -18 19 8 6 16 11 37 11 48
0 10 6 19 13 19 15 0 47 -61 47 -90 0 -15 7 -20 24 -20 49 0 73 -17 80 -54 8
-41 38 -50 56 -16 14 27 29 25 40 -4 5 -13 18 -27 28 -30 11 -4 30 -22 43 -41
13 -19 29 -35 34 -35 21 0 85 21 85 28 -1 17 -40 52 -57 52 -31 0 -89 34 -122
72 -19 22 -44 38 -65 42 -40 8 -108 40 -124 59 -7 8 -12 25 -12 38 0 21 -2 49
-13 184 -2 25 3 32 31 44 40 18 41 30 1 38 -24 4 -29 10 -26 24 4 13 0 19 -13
19 -18 0 -51 46 -65 91 -4 13 -18 40 -31 59 -13 19 -24 42 -24 51 0 9 -9 24
-20 34 -11 10 -20 23 -20 30 0 36 -102 109 -124 88z"/>
<path d="M5367 5384 c-11 -12 3 -24 29 -24 16 0 24 5 22 13 -5 13 -40 22 -51
11z"/>
<path d="M8037 5373 c-13 -13 -7 -35 16 -54 27 -22 57 -25 57 -4 0 8 -7 15
-15 15 -9 0 -20 11 -25 25 -9 25 -21 31 -33 18z"/>
<path d="M5442 5343 c4 -21 82 -76 87 -61 4 12 -60 77 -77 78 -8 0 -12 -8 -10
-17z"/>
<path d="M5640 5352 c0 -4 9 -15 20 -25 19 -16 22 -16 36 -2 9 8 20 15 25 15
6 0 7 5 4 10 -7 12 -85 14 -85 2z"/>
<path d="M7765 5341 c-23 -12 -58 -16 -147 -16 -65 -1 -120 -4 -124 -8 -4 -4
18 -18 49 -32 49 -21 66 -24 119 -18 37 4 67 12 74 21 8 11 15 12 32 3 45 -24
70 -6 58 44 -7 28 -19 30 -61 6z"/>
<path d="M8167 5343 c-8 -7 11 -33 24 -33 5 0 9 9 9 20 0 19 -20 27 -33 13z"/>
<path d="M6057 5334 c-4 -4 -7 -17 -7 -29 0 -13 -26 -49 -66 -90 -60 -63 -64
-70 -48 -82 10 -7 37 -13 60 -13 25 0 47 -6 54 -16 18 -21 74 -15 78 9 2 12
-3 17 -17 17 -12 0 -21 3 -21 8 0 9 151 8 167 -1 15 -10 63 13 63 29 0 12 -99
94 -113 94 -4 0 -7 -10 -7 -23 0 -31 -19 -53 -52 -61 -21 -5 -28 -3 -28 8 0 9
-12 22 -27 29 l-27 15 22 13 c24 15 28 33 12 52 -6 7 -16 20 -23 30 -7 10 -16
15 -20 11z"/>
<path d="M3626 5301 c-10 -15 124 -161 147 -161 22 0 33 27 20 49 -5 9 -24 21
-42 27 -17 5 -51 29 -75 53 -27 27 -46 39 -50 32z"/>
<path d="M5690 5293 c1 -14 25 -48 64 -90 27 -30 47 -43 65 -43 22 1 24 2 10
13 -9 7 -22 25 -30 42 -18 38 -110 103 -109 78z"/>
<path d="M6958 5279 c-44 -23 -48 -36 -14 -48 27 -11 154 -29 236 -35 30 -2
62 -6 70 -8 32 -7 23 15 -18 45 -33 24 -55 32 -102 35 -34 2 -65 10 -71 18
-16 19 -57 17 -101 -7z"/>
<path d="M3090 5273 c0 -13 5 -23 10 -23 13 0 13 11 0 30 -8 12 -10 11 -10 -7z"/>
<path d="M8815 5260 c-4 -6 -1 -17 5 -25 14 -17 46 -20 55 -5 3 6 -1 10 -10
10 -8 0 -18 7 -21 15 -7 17 -20 19 -29 5z"/>
<path d="M5557 5228 c7 -38 75 -114 92 -104 16 10 13 46 -4 52 -8 4 -15 13
-15 21 0 17 -48 63 -66 63 -10 0 -12 -9 -7 -32z"/>
<path d="M4386 5221 c-8 -12 38 -41 64 -41 27 0 25 14 -5 34 -27 18 -51 21
-59 7z"/>
<path d="M6773 5213 c-18 -7 -16 -62 2 -97 9 -16 14 -41 13 -55 -2 -20 2 -27
20 -29 26 -4 29 13 8 63 -11 25 -12 43 -6 66 13 43 -4 66 -37 52z"/>
<path d="M5387 5203 c-9 -8 32 -53 49 -53 7 0 22 -12 34 -27 24 -31 69 -63 88
-63 21 0 12 24 -21 52 -18 16 -50 44 -71 63 -37 33 -65 43 -79 28z"/>
<path d="M4250 5179 c0 -18 4 -20 48 -14 61 8 72 12 72 25 0 13 -57 13 -66 -1
-4 -8 -9 -8 -17 0 -18 18 -37 13 -37 -10z"/>
<path d="M8760 5191 c0 -5 -9 -11 -20 -14 -23 -6 -27 -27 -6 -27 7 0 21 11 30
25 9 14 12 25 6 25 -5 0 -10 -4 -10 -9z"/>
<path d="M4675 5151 c-7 -12 34 -51 53 -51 8 0 3 11 -15 30 -32 34 -30 33 -38
21z"/>
<path d="M4545 5141 c-3 -6 3 -15 14 -21 21 -11 37 2 26 20 -8 13 -32 13 -40
1z"/>
<path d="M7420 5128 c-14 -6 -50 -9 -82 -9 -31 1 -59 -3 -63 -9 -3 -5 -14 -10
-24 -10 -25 0 -44 -23 -30 -37 14 -14 89 -4 111 15 16 13 21 13 52 -2 46 -22
132 -13 147 16 9 16 5 21 -25 33 -41 17 -52 18 -86 3z"/>
<path d="M4801 5107 c-25 -25 -2 -59 24 -37 8 7 15 18 15 25 0 18 -25 26 -39
12z"/>
<path d="M7018 5113 c-20 -3 -28 -10 -28 -25 0 -20 1 -20 18 -5 16 15 20 15
50 -3 18 -11 32 -16 32 -11 0 15 32 22 47 9 11 -9 16 -9 23 2 22 36 -35 49
-142 33z"/>
<path d="M7557 5113 c-14 -13 -6 -23 39 -49 40 -24 48 -25 70 -14 31 17 30 28
-3 36 -16 4 -37 13 -48 20 -21 15 -48 18 -58 7z"/>
<path d="M5673 5099 c-38 -11 -41 -19 -13 -44 14 -12 28 -16 47 -11 15 4 37 8
47 9 33 4 28 22 -9 40 -20 9 -37 17 -38 16 -1 0 -17 -5 -34 -10z"/>
<path d="M3790 5086 c0 -32 23 -76 40 -76 10 0 23 -7 30 -15 15 -18 51 -20 68
-3 19 19 15 24 -28 38 -21 7 -51 26 -66 41 -30 32 -44 36 -44 15z"/>
<path d="M7713 5074 c-7 -15 -10 -30 -8 -34 12 -19 116 -41 208 -45 120 -4
147 0 147 26 0 28 -26 36 -137 42 -70 3 -109 10 -125 21 -35 25 -71 20 -85
-10z"/>
<path d="M6271 5070 c-13 -11 -29 -20 -37 -20 -7 0 -24 -5 -37 -11 -20 -9 -24
-18 -25 -55 0 -34 4 -44 19 -49 28 -9 6 -44 -32 -52 -42 -8 -38 -33 5 -33 19
0 38 5 41 10 9 15 35 12 35 -4 0 -17 54 -40 75 -32 21 8 19 21 -7 35 -112 57
-112 77 -2 86 25 2 52 9 60 16 12 10 21 9 42 -3 44 -25 78 -30 93 -12 10 12
25 14 76 8 44 -4 63 -3 63 5 0 6 -6 11 -14 11 -8 0 -34 20 -58 45 -41 42 -68
57 -68 35 0 -7 -60 -30 -81 -30 -3 0 -16 9 -29 20 -13 11 -29 20 -35 20 -7 0
-18 7 -25 15 -16 20 -30 19 -59 -5z m-6 -50 c3 -5 -1 -10 -9 -10 -8 0 -18 5
-21 10 -3 6 1 10 9 10 8 0 18 -4 21 -10z"/>
<path d="M8322 5073 c4 -22 43 -25 43 -3 0 8 -11 16 -23 18 -19 3 -23 0 -20
-15z"/>
<path d="M8940 5064 c0 -10 7 -14 22 -12 32 5 35 28 4 28 -17 0 -26 -5 -26
-16z"/>
<path d="M4851 5055 c0 -5 6 -19 14 -29 8 -11 15 -15 15 -10 0 6 -7 19 -15 30
-8 10 -14 15 -14 9z"/>
<path d="M5970 5020 c0 -5 11 -12 24 -16 36 -9 69 -60 60 -92 -4 -15 -8 -47
-8 -72 -1 -41 -3 -45 -27 -48 -22 -3 -27 2 -32 27 -4 17 -13 31 -21 31 -7 0
-27 14 -44 31 -17 18 -38 29 -48 27 -11 -2 -30 9 -46 26 -23 24 -32 27 -62 22
-33 -6 -119 9 -141 24 -18 13 -75 20 -75 10 0 -6 9 -10 20 -10 11 0 23 -7 26
-15 4 -8 12 -15 20 -15 8 0 31 -15 51 -33 21 -18 53 -39 71 -47 29 -11 34 -11
47 6 14 18 15 18 21 -3 8 -29 30 -30 37 -2 l6 21 33 -23 c30 -22 31 -24 11
-27 -12 -2 -27 -10 -33 -17 -18 -22 42 -86 97 -105 23 -8 50 -25 59 -38 15
-21 15 -25 -1 -42 -18 -20 -15 -61 7 -88 14 -16 28 1 28 36 0 31 30 28 60 -6
14 -16 32 -31 40 -34 12 -4 13 -9 3 -27 -7 -11 -13 -30 -13 -42 0 -36 -25 -15
-28 24 -4 48 -18 47 -26 0 -13 -79 -8 -101 30 -135 49 -45 64 -52 77 -39 26
26 60 11 116 -48 31 -32 81 -78 111 -101 30 -23 68 -57 83 -76 26 -31 33 -34
82 -34 61 0 73 -9 45 -35 -18 -16 -20 -16 -35 -1 -21 20 -55 21 -55 1 0 -22
36 -58 50 -50 6 4 25 1 42 -6 29 -12 33 -11 54 14 23 27 58 36 69 17 4 -6 22
-17 41 -25 19 -8 34 -19 34 -24 0 -17 56 -13 70 4 16 19 59 19 81 0 15 -14 18
-14 33 1 26 25 16 45 -35 70 -51 26 -212 47 -241 33 -9 -5 -19 -5 -22 -1 -7
12 5 81 15 88 15 9 10 40 -9 57 -28 25 -44 21 -42 -10 4 -57 6 -56 -72 -48
-84 8 -109 20 -131 67 -24 46 -52 78 -72 78 -24 0 -65 46 -65 74 0 14 -4 28
-10 31 -5 3 -10 23 -10 44 0 27 -7 46 -26 66 -14 15 -28 25 -31 22 -3 -4 3
-36 12 -72 11 -39 15 -69 9 -75 -5 -5 -28 -15 -52 -23 -39 -14 -46 -14 -71 1
l-28 16 23 45 c15 27 22 52 18 64 -5 17 -2 19 20 15 40 -8 34 28 -9 53 -19 12
-35 27 -35 34 0 18 32 27 64 19 15 -3 32 -1 40 5 7 6 24 10 37 9 34 -4 33 34
0 42 -16 4 -28 16 -34 35 -5 17 -10 36 -13 43 -3 11 -8 10 -26 -2 -12 -9 -32
-16 -45 -16 -29 0 -39 -18 -18 -34 15 -11 14 -13 -11 -25 -25 -11 -30 -10 -62
23 -20 21 -44 36 -58 36 -31 0 -40 17 -13 25 15 5 29 -1 49 -20 16 -15 33 -24
39 -21 15 10 14 51 -3 65 -19 16 -27 79 -13 102 9 14 9 21 -1 31 -16 16 -15
28 1 28 19 0 50 36 43 49 -4 5 -27 13 -51 17 -25 3 -48 10 -51 15 -7 12 -54
11 -54 -1z"/>
<path d="M5385 5011 c-3 -6 8 -20 25 -32 16 -13 32 -30 35 -39 3 -9 34 -46 69
-82 48 -50 74 -69 101 -74 55 -10 61 5 24 65 -25 39 -40 54 -63 58 -17 4 -53
29 -85 60 -52 50 -91 67 -106 44z"/>
<path d="M6798 4998 c-18 -15 -33 -84 -20 -92 5 -3 23 -1 40 3 26 8 35 5 56
-14 20 -19 32 -22 69 -18 38 5 51 1 81 -22 28 -21 36 -36 42 -71 7 -51 19 -49
34 5 5 21 18 45 28 54 17 16 21 15 52 -8 39 -29 58 -31 66 -10 8 21 -12 42
-47 50 -16 4 -34 15 -39 25 -12 22 -79 38 -89 22 -4 -6 -31 -13 -60 -16 -71
-7 -133 19 -162 68 -23 40 -28 42 -51 24z"/>
<path d="M4895 4963 c13 -36 65 -93 86 -93 6 0 9 15 7 33 -2 23 -7 31 -19 29
-10 -1 -25 12 -38 33 -11 19 -27 35 -34 35 -12 0 -13 -6 -2 -37z"/>
<path d="M4660 4978 c7 -7 28 -40 49 -72 35 -56 41 -60 99 -76 47 -13 62 -14
62 -5 0 7 -7 18 -15 25 -8 7 -15 19 -15 26 0 8 -10 14 -25 14 -29 0 -85 37
-85 57 0 7 -13 19 -30 28 -36 19 -55 20 -40 3z"/>
<path d="M3982 4934 c3 -18 75 -80 83 -73 10 11 -50 89 -68 89 -12 0 -17 -6
-15 -16z"/>
<path d="M7365 4900 c-9 -14 15 -54 26 -43 10 10 1 53 -12 53 -4 0 -11 -4 -14
-10z"/>
<path d="M6470 4836 c0 -10 9 -16 21 -16 24 0 21 23 -4 28 -10 2 -17 -3 -17
-12z"/>
<path d="M9230 4816 c0 -6 9 -17 20 -24 17 -11 20 -10 20 7 0 10 -9 21 -20 24
-12 3 -20 0 -20 -7z"/>
<path d="M4884 4754 c3 -28 0 -56 -5 -61 -11 -11 25 -48 59 -58 17 -5 22 -2
22 12 0 11 -5 24 -12 31 -15 15 -7 23 34 32 50 10 84 -11 91 -56 4 -21 2 -43
-4 -50 -12 -15 -1 -40 31 -69 18 -16 20 -26 14 -72 -6 -48 -5 -53 13 -53 23 0
53 30 53 52 0 9 -7 21 -15 28 -8 7 -15 20 -15 30 0 10 -7 23 -15 30 -10 8 -15
31 -15 67 0 35 5 60 15 69 18 18 19 43 4 81 l-12 28 -19 -42 c-10 -24 -22 -43
-26 -43 -12 0 -33 40 -27 50 3 5 -3 14 -14 19 -17 10 -20 7 -23 -16 -2 -21
-10 -29 -37 -37 -35 -10 -46 -3 -89 60 -11 16 -12 12 -8 -32z"/>
<path d="M8380 4775 c-7 -8 -29 -15 -48 -15 -20 0 -56 -8 -80 -17 -37 -14 -48
-14 -65 -4 -18 12 -22 11 -34 -5 -15 -21 -16 -24 -3 -44 8 -12 13 -13 30 -2
11 7 31 10 45 6 20 -5 25 -12 25 -37 0 -24 3 -28 12 -19 7 7 25 12 41 12 27 0
29 3 25 30 -3 17 0 30 6 30 6 0 21 3 34 6 19 5 22 2 22 -19 0 -31 16 -43 36
-26 13 10 12 14 -3 31 -16 18 -17 20 -1 29 14 8 15 14 6 34 -13 28 -30 32 -48
10z"/>
<path d="M4150 4771 c0 -6 8 -11 18 -11 9 0 26 -7 36 -15 11 -8 29 -15 39 -15
11 0 34 -9 52 -20 38 -23 59 -11 45 27 -7 17 -19 22 -67 26 -32 3 -73 8 -90
12 -22 5 -33 3 -33 -4z"/>
<path d="M5770 4766 c0 -18 39 -66 54 -66 6 0 27 -13 46 -30 19 -16 41 -29 48
-30 19 0 14 21 -7 27 -10 3 -40 29 -65 59 -46 52 -76 69 -76 40z"/>
<path d="M5417 4754 c-9 -10 2 -24 19 -24 8 0 14 7 14 15 0 15 -21 21 -33 9z"/>
<path d="M9290 4716 c0 -9 7 -16 16 -16 9 0 14 5 12 12 -6 18 -28 21 -28 4z"/>
<path d="M8597 4704 c-13 -13 -7 -24 14 -24 11 0 19 5 17 12 -5 14 -22 21 -31
12z"/>
<path d="M8808 4678 c7 -7 12 -23 12 -36 0 -13 4 -21 8 -18 15 9 1 66 -16 66
-12 0 -13 -3 -4 -12z"/>
<path d="M4780 4669 c-14 -4 -48 -7 -76 -8 -36 -1 -61 -8 -86 -25 -19 -13 -41
-26 -49 -29 -8 -4 9 -4 36 0 28 3 63 12 78 20 16 8 35 12 42 9 16 -6 82 11 90
24 8 13 -7 18 -35 9z"/>
<path d="M6360 4645 c0 -30 11 -32 33 -7 19 21 13 32 -15 32 -13 0 -18 -7 -18
-25z"/>
<path d="M9067 4643 c-4 -3 -7 -18 -7 -31 0 -24 1 -25 20 -7 11 10 20 24 20
32 0 14 -22 18 -33 6z"/>
<path d="M5253 4633 c-13 -2 -23 -10 -23 -18 0 -48 44 -63 60 -19 18 45 16 47
-37 37z"/>
<path d="M6495 4630 c-8 -12 20 -24 35 -15 6 3 8 11 5 16 -8 12 -32 12 -40 -1z"/>
<path d="M7010 4605 c0 -29 4 -35 20 -35 26 0 35 22 20 49 -18 34 -40 26 -40
-14z"/>
<path d="M9236 4632 c-3 -5 4 -16 15 -25 11 -10 19 -29 19 -48 0 -41 -29 -101
-52 -107 -22 -5 -23 -18 -3 -26 18 -7 56 -67 49 -78 -3 -4 -2 -13 2 -19 12
-19 32 53 21 75 -7 13 -3 33 14 70 13 28 24 53 26 55 2 2 11 -3 22 -13 16 -14
20 -15 30 -2 10 12 10 23 1 50 -11 35 -30 57 -30 37 0 -21 -27 -11 -38 14 -9
18 -19 25 -41 25 -16 0 -32 -4 -35 -8z"/>
<path d="M8325 4599 l-7 -31 -19 21 c-11 12 -24 21 -29 21 -12 0 -30 -33 -30
-54 0 -19 50 -22 68 -4 18 18 28 0 13 -23 -10 -18 -10 -24 5 -40 19 -21 34
-17 34 11 0 12 13 25 35 36 37 17 60 47 50 64 -4 7 -13 7 -25 0 -30 -16 -58
-12 -65 10 -9 29 -22 24 -30 -11z"/>
<path d="M6582 4598 c3 -7 17 -13 32 -13 16 -1 32 -8 37 -18 7 -12 23 -17 60
-17 61 0 62 16 3 38 -56 20 -137 27 -132 10z"/>
<path d="M6920 4601 c0 -5 7 -14 15 -21 18 -15 42 1 31 19 -8 13 -46 15 -46 2z"/>
<path d="M7645 4600 c-4 -7 -3 -16 3 -22 14 -14 47 -6 47 12 0 18 -40 26 -50
10z"/>
<path d="M3360 4580 c0 -14 7 -20 22 -20 20 0 21 1 3 20 -10 11 -20 20 -22 20
-1 0 -3 -9 -3 -20z"/>
<path d="M4470 4580 c6 -11 20 -20 30 -20 13 0 20 7 20 20 0 16 -7 20 -30 20
-28 0 -30 -2 -20 -20z"/>
<path d="M8601 4586 c-24 -13 -50 -51 -51 -73 0 -6 15 -15 33 -18 17 -4 52
-20 76 -36 58 -38 75 -38 66 -1 -5 24 -2 30 20 40 30 14 33 32 6 32 -13 0 -21
8 -23 23 -2 16 -11 23 -33 25 -16 2 -34 8 -39 13 -13 12 -26 11 -55 -5z"/>
<path d="M7293 4584 c-7 -3 -13 -19 -13 -35 0 -25 4 -29 28 -29 15 0 33 5 40
12 9 9 15 9 24 0 19 -19 44 -14 73 12 31 29 22 37 -37 34 -24 0 -56 2 -73 5
-16 3 -36 4 -42 1z"/>
<path d="M7744 4565 c-19 -29 -12 -45 21 -45 30 0 59 38 43 57 -17 21 -46 15
-64 -12z"/>
<path d="M4996 4564 c-3 -9 -6 -24 -6 -35 0 -23 -9 -24 -24 -3 -8 10 -23 14
-41 12 l-30 -3 29 -16 28 -16 -31 -13 c-30 -12 -31 -13 -12 -26 15 -11 26 -12
47 -4 14 6 34 8 43 6 9 -3 29 6 46 19 l29 24 -22 24 c-12 13 -22 29 -22 35 0
18 -27 15 -34 -4z"/>
<path d="M7544 4569 c-3 -6 -1 -16 4 -21 13 -13 45 8 36 23 -7 12 -31 11 -40
-2z"/>
<path d="M5206 4552 c-8 -13 9 -67 20 -64 13 3 11 65 -3 69 -6 2 -14 0 -17 -5z"/>
<path d="M4560 4516 c0 -16 98 -86 122 -86 18 0 30 23 22 45 -4 9 -19 15 -41
15 -20 0 -46 9 -60 20 -30 23 -43 25 -43 6z"/>
<path d="M5344 4518 c-4 -6 0 -16 9 -23 10 -7 17 -22 17 -33 0 -11 5 -24 10
-27 6 -3 10 -17 10 -29 0 -13 7 -30 16 -37 9 -7 20 -23 25 -36 15 -39 48 -52
109 -45 l55 7 -47 23 c-64 32 -98 60 -98 82 0 10 -10 31 -23 47 -12 15 -29 40
-36 56 -15 28 -35 35 -47 15z"/>
<path d="M5717 4483 c-14 -13 -6 -39 19 -56 24 -18 26 -18 44 -2 27 24 8 65
-30 65 -15 0 -30 -3 -33 -7z"/>
<path d="M6000 4470 c-1 -34 -32 -94 -50 -97 -10 -2 -23 16 -38 49 -22 50 -22
51 -42 33 -24 -22 -26 -51 -3 -63 19 -11 11 -42 -12 -42 -22 0 -18 -17 6 -23
29 -8 49 2 42 20 -4 11 -2 14 5 9 18 -11 26 -74 12 -91 -11 -13 -10 -14 6 -8
24 9 34 22 34 51 0 18 6 22 29 22 34 0 61 30 61 68 0 13 -11 40 -25 60 -24 35
-25 35 -25 12z"/>
<path d="M6994 4479 c-9 -15 12 -33 30 -26 9 4 16 13 16 22 0 17 -35 21 -46 4z"/>
<path d="M7217 4472 c-20 -12 -27 -24 -25 -42 4 -35 34 -33 31 2 -1 22 3 27
25 30 15 2 26 8 25 13 -3 17 -27 16 -56 -3z"/>
<path d="M7763 4463 c-16 -6 -17 -28 -2 -55 9 -17 13 -18 20 -7 11 17 12 56 2
62 -5 2 -14 2 -20 0z"/>
<path d="M8231 4446 c-13 -14 -39 -32 -58 -41 -28 -14 -33 -20 -27 -38 8 -26
33 -46 57 -47 10 0 20 -7 24 -15 9 -26 62 -47 99 -40 19 3 43 1 55 -6 31 -16
53 8 44 51 -9 41 -19 44 -89 26 -68 -18 -83 -14 -92 27 -7 31 12 57 43 57 16
0 17 22 1 38 -18 18 -32 15 -57 -12z"/>
<path d="M6955 4438 c-6 -16 -1 -26 16 -39 21 -16 24 -16 27 -3 11 49 -29 88
-43 42z"/>
<path d="M7934 4435 c-3 -8 -3 -19 1 -25 11 -18 25 -11 25 15 0 27 -17 34 -26
10z"/>
<path d="M8496 4430 c-16 -5 -41 -7 -56 -3 -21 4 -31 0 -44 -18 -22 -32 -21
-35 14 -48 26 -8 30 -15 30 -45 0 -39 10 -45 60 -38 23 3 46 16 67 38 18 19
38 34 46 34 8 0 21 8 31 18 15 18 15 20 -4 37 -17 15 -26 17 -54 8 -30 -9 -35
-8 -39 8 -6 21 -9 21 -51 9z"/>
<path d="M9330 4411 c0 -29 3 -31 36 -31 33 0 35 2 32 28 -2 22 -8 28 -35 30
-31 3 -33 1 -33 -27z"/>
<path d="M5030 4395 c0 -24 -2 -25 -68 -25 -55 0 -71 -4 -85 -20 -24 -28 -22
-30 16 -19 17 5 61 12 97 14 67 6 110 25 110 49 0 15 -21 26 -51 26 -14 0 -19
-7 -19 -25z"/>
<path d="M8755 4399 c-11 -16 4 -24 23 -12 13 8 21 7 31 -4 10 -11 16 -12 25
-3 8 8 7 13 -4 20 -20 13 -67 12 -75 -1z"/>
<path d="M3700 4387 c0 -2 7 -18 16 -35 14 -30 44 -44 44 -22 0 6 -5 10 -10
10 -6 0 -15 11 -20 25 -5 14 -14 25 -20 25 -5 0 -10 -2 -10 -3z"/>
<path d="M4710 4376 c0 -7 11 -30 25 -50 14 -20 25 -44 25 -52 0 -23 32 -74
46 -74 16 0 24 24 13 41 -5 8 -9 23 -9 33 0 11 -10 33 -23 50 -13 17 -26 39
-30 49 -7 20 -47 23 -47 3z"/>
<path d="M9167 4329 c-9 -10 -23 -19 -31 -19 -9 0 -16 -17 -21 -46 -6 -42 -10
-47 -49 -65 -44 -19 -79 -49 -109 -93 -10 -15 -36 -34 -58 -44 -21 -9 -39 -23
-39 -30 0 -8 12 -36 28 -63 25 -45 30 -49 65 -49 26 0 37 4 37 15 0 9 -9 15
-25 15 -28 0 -34 17 -9 27 10 4 22 -1 29 -10 7 -10 20 -17 30 -17 12 0 15 -5
10 -17 -13 -34 -10 -38 32 -41 51 -4 51 -5 56 -140 4 -86 6 -95 27 -105 43
-22 48 -42 20 -95 l-25 -47 -80 -5 c-74 -5 -81 -7 -92 -31 -7 -15 -30 -35 -51
-46 -20 -10 -58 -33 -84 -52 -48 -34 -48 -34 -48 -93 l0 -59 37 3 c46 4 60 34
16 33 -21 0 -29 5 -31 21 -4 31 25 57 60 52 30 -5 49 9 108 81 21 25 32 30 72
30 26 1 53 7 60 14 7 8 23 19 35 25 27 15 47 -7 41 -42 -4 -22 -1 -25 29 -28
45 -4 47 -22 3 -26 -19 -2 -37 -7 -40 -11 -11 -14 -58 -40 -64 -34 -15 15 -4
35 27 48 31 14 30 14 -45 15 -42 0 -80 -4 -83 -10 -3 -5 -15 -10 -26 -10 -13
0 -19 -7 -19 -24 0 -13 -10 -30 -22 -39 -22 -14 -22 -16 -6 -32 14 -15 22 -16
62 -6 25 6 63 11 85 11 22 0 46 7 55 15 8 8 30 18 48 21 48 9 88 27 88 40 0 7
11 19 25 28 15 10 25 26 25 40 0 23 33 46 66 46 20 0 14 29 -8 44 -13 8 -22 6
-37 -8 -11 -10 -37 -20 -58 -23 -34 -4 -41 -1 -60 25 l-23 31 20 46 c24 56 24
55 5 55 -17 0 -35 38 -35 74 0 13 -9 30 -20 37 l-21 14 21 40 c16 30 19 50 14
79 l-6 39 36 -6 c38 -6 48 5 19 21 -12 7 -27 4 -52 -9 -43 -23 -69 -24 -98 -4
-27 19 -35 52 -16 71 9 8 13 24 10 35 -5 18 -2 20 21 15 81 -18 95 -19 90 -5
-2 8 -14 15 -26 17 -28 4 -28 15 5 93 14 35 27 82 28 104 1 22 5 47 9 56 11
25 -18 31 -37 8z m-53 -195 c9 -23 -8 -40 -46 -48 -30 -6 -58 6 -58 26 0 10
57 37 81 38 9 0 20 -7 23 -16z m-104 -82 c0 -10 -22 -32 -32 -32 -4 0 -8 9 -8
20 0 13 7 20 20 20 11 0 20 -4 20 -8z"/>
<path d="M7625 4326 c-30 -22 -12 -46 35 -46 32 0 40 4 40 18 0 39 -40 54 -75
28z"/>
<path d="M7780 4331 c0 -5 7 -11 15 -15 9 -3 15 0 15 9 0 8 -7 15 -15 15 -8 0
-15 -4 -15 -9z"/>
<path d="M4636 4318 c-3 -7 -7 -26 -11 -41 -5 -25 -3 -28 15 -22 16 5 20 2 20
-15 0 -11 7 -23 15 -27 23 -8 25 -1 10 32 -7 17 -16 42 -19 58 -7 28 -24 36
-30 15z"/>
<path d="M7912 4318 c-17 -17 -15 -28 7 -28 16 0 31 18 31 36 0 9 -27 3 -38
-8z"/>
<path d="M8840 4315 c-19 -22 -9 -69 16 -73 26 -4 37 19 24 52 -12 32 -25 39
-40 21z"/>
<path d="M4542 4308 c-19 -19 -14 -63 8 -83 20 -18 20 -17 20 38 0 57 -6 67
-28 45z"/>
<path d="M7455 4306 c-11 -8 -16 -19 -12 -30 9 -22 63 -21 92 3 l24 18 -38 12
c-47 14 -43 14 -66 -3z"/>
<path d="M3600 4301 c0 -5 7 -14 15 -21 8 -7 15 -18 15 -26 0 -17 39 -29 52
-16 8 8 0 17 -26 32 -20 12 -36 26 -36 31 0 5 -4 9 -10 9 -5 0 -10 -4 -10 -9z"/>
<path d="M9300 4286 c0 -17 5 -26 16 -26 10 0 14 7 12 22 -5 32 -28 35 -28 4z"/>
<path d="M5660 4272 c0 -28 10 -32 36 -15 32 21 30 33 -6 33 -22 0 -30 -5 -30
-18z"/>
<path d="M7322 4239 c2 -6 8 -10 13 -10 5 0 11 4 13 10 2 6 -4 11 -13 11 -9 0
-15 -5 -13 -11z"/>
<path d="M9390 4235 c-7 -8 -20 -15 -30 -15 -11 0 -20 -10 -22 -25 -6 -28 12
-34 31 -11 7 8 23 17 36 20 16 4 25 13 25 26 0 24 -22 26 -40 5z"/>
<path d="M4895 4224 c-45 -11 -48 -13 -35 -29 7 -9 29 -15 52 -15 46 0 99 -27
95 -49 -1 -7 4 -16 11 -18 6 -3 12 3 12 11 0 13 7 11 38 -9 20 -14 50 -33 66
-43 16 -9 47 -32 68 -51 36 -31 41 -33 63 -21 14 7 26 11 28 9 2 -2 14 -19 26
-36 15 -23 30 -33 47 -33 53 0 0 57 -78 86 -10 3 -18 10 -18 14 0 5 -6 15 -13
22 -7 7 -20 25 -30 41 -14 21 -25 27 -53 27 -32 0 -72 18 -102 47 -7 7 -19 13
-26 13 -7 0 -26 7 -43 15 -35 18 -80 25 -108 19z"/>
<path d="M5830 4205 c-19 -14 -40 -25 -48 -25 -10 0 -12 -8 -7 -32 4 -18 9
-36 12 -40 8 -14 46 -8 58 9 10 13 16 15 27 6 9 -8 19 -9 28 -3 24 16 70 12
70 -5 0 -8 -9 -15 -19 -15 -31 0 -35 -19 -7 -30 14 -5 26 -14 26 -20 0 -5 14
-10 31 -10 17 0 43 -9 57 -21 16 -12 34 -18 48 -15 16 4 26 -1 38 -19 17 -25
50 -33 61 -15 3 5 43 9 91 8 l84 -2 0 -27 c0 -14 7 -32 15 -39 13 -11 15 -8
15 14 0 28 24 36 34 11 3 -8 12 -15 19 -15 8 0 20 -7 28 -16 9 -11 25 -15 50
-12 28 2 40 -1 48 -15 8 -13 18 -16 33 -11 11 3 39 0 60 -7 37 -12 41 -11 57
9 13 18 22 21 54 16 30 -5 37 -4 37 9 0 26 -33 38 -70 26 -24 -9 -37 -8 -56 2
-21 11 -27 11 -34 -1 -6 -8 -10 -10 -10 -4 0 11 -68 29 -100 27 -22 -2 -70 28
-103 65 -16 17 -38 32 -48 32 -11 0 -31 7 -44 16 -20 13 -43 16 -110 12 l-84
-4 -12 28 c-9 22 -9 35 0 55 13 27 6 47 -9 24 -5 -8 -32 -16 -64 -19 -63 -5
-87 -22 -31 -22 22 0 38 -6 41 -15 4 -8 15 -15 25 -15 10 0 19 -7 19 -15 0
-12 -8 -14 -42 -9 -58 9 -69 16 -113 69 -21 25 -47 45 -58 45 -10 0 -21 9 -24
20 -7 27 -32 25 -73 -5z"/>
<path d="M5686 4213 c-3 -3 -3 -10 0 -14 7 -12 34 -11 34 0 0 11 -26 22 -34
14z"/>
<path d="M4643 4189 c-18 -24 -21 -70 -6 -100 8 -16 12 -38 8 -49 -4 -11 -2
-20 4 -20 6 0 21 -16 33 -35 26 -40 38 -43 56 -15 7 11 18 17 27 14 10 -4 15
0 15 14 0 24 -26 47 -54 47 -16 0 -22 7 -24 33 -2 21 3 41 12 51 19 20 12 31
-19 31 -13 0 -26 9 -31 21 -8 17 -12 19 -21 8z"/>
<path d="M7028 4169 c-27 -28 -23 -42 10 -34 35 8 46 20 39 39 -8 21 -28 19
-49 -5z"/>
<path d="M7192 4181 c-8 -4 -12 -19 -10 -32 2 -20 9 -24 38 -25 60 -2 110 8
110 22 0 8 -12 16 -27 19 -16 4 -36 10 -45 16 -22 11 -49 11 -66 0z"/>
<path d="M6810 4147 c0 -19 21 -37 43 -37 16 0 17 2 7 16 -21 24 -50 37 -50
21z"/>
<path d="M7100 4145 c0 -8 5 -15 10 -15 6 0 10 7 10 15 0 8 -4 15 -10 15 -5 0
-10 -7 -10 -15z"/>
<path d="M9266 4136 c-31 -18 -35 -24 -21 -29 37 -15 74 5 75 41 0 17 -10 15
-54 -12z"/>
<path d="M5294 4114 c3 -9 6 -17 6 -19 0 -3 16 -15 36 -29 61 -41 89 -9 33 38
-35 30 -85 36 -75 10z"/>
<path d="M7074 4095 c-4 -8 -3 -22 0 -31 4 -11 -1 -18 -14 -21 -26 -7 -26 -33
0 -33 21 0 55 63 46 87 -7 18 -25 16 -32 -2z"/>
<path d="M7476 4089 c-14 -46 -13 -62 5 -80 10 -10 19 -26 19 -34 0 -8 9 -15
20 -15 13 0 20 7 20 18 0 11 17 29 38 43 50 32 51 63 2 66 -19 1 -50 5 -67 8
-24 5 -34 3 -37 -6z"/>
<path d="M8462 4078 c-18 -18 -14 -40 13 -73 23 -28 29 -30 82 -28 72 4 90 10
103 34 16 29 3 40 -36 33 -22 -4 -40 -2 -50 7 -14 12 -79 38 -94 39 -4 0 -11
-5 -18 -12z"/>
<path d="M7796 4073 c-4 -4 -26 -8 -49 -8 -66 0 -49 -20 18 -21 56 -1 119 -8
155 -16 27 -6 17 35 -10 43 -34 10 -105 11 -114 2z"/>
<path d="M4309 4041 c-9 -27 -14 -30 -37 -24 -14 3 -37 12 -51 19 -30 16 -81
18 -81 5 0 -15 20 -24 51 -23 15 0 33 -6 40 -14 6 -8 22 -14 35 -14 12 0 26
-4 29 -10 9 -14 42 -12 48 3 6 17 -4 76 -14 83 -5 3 -14 -8 -20 -25z"/>
<path d="M4415 4060 c3 -5 15 -10 26 -10 11 0 17 5 14 10 -3 6 -15 10 -26 10
-11 0 -17 -4 -14 -10z"/>
<path d="M5826 4051 c-12 -13 -15 -27 -11 -40 4 -15 1 -23 -10 -27 -9 -4 -22
-19 -31 -35 -17 -34 -48 -38 -78 -10 -42 39 -111 68 -174 74 -53 6 -64 4 -69
-10 -4 -11 0 -21 12 -27 50 -30 85 -69 85 -97 0 -40 30 -55 71 -34 31 16 44
14 44 -8 0 -7 5 -13 10 -14 6 -1 9 4 7 11 -2 14 38 36 66 36 10 0 23 5 29 11
7 7 23 9 38 5 34 -9 32 -49 -2 -54 -40 -6 -27 -32 15 -32 l38 0 0 56 c-1 41
-5 58 -17 65 -21 11 -23 73 -3 90 15 12 19 59 6 59 -5 0 -17 -9 -26 -19z
m-193 -108 c12 -11 -14 -33 -39 -33 -26 0 -30 10 -12 28 13 13 41 16 51 5z"/>
<path d="M7275 4061 c-3 -5 -1 -12 4 -15 13 -8 42 4 35 15 -7 12 -31 12 -39 0z"/>
<path d="M9260 4055 c-7 -8 -10 -19 -6 -22 9 -9 38 8 38 22 -1 16 -18 16 -32
0z"/>
<path d="M7228 4048 c9 -9 15 -9 24 0 9 9 7 12 -12 12 -19 0 -21 -3 -12 -12z"/>
<path d="M3870 4023 c0 -8 13 -13 36 -13 41 0 38 16 -6 22 -20 3 -30 0 -30 -9z"/>
<path d="M4532 4031 c-23 -14 -10 -46 18 -43 34 4 46 18 30 37 -14 17 -29 19
-48 6z"/>
<path d="M8062 4029 c3 -8 21 -15 44 -16 69 -4 139 -23 154 -42 11 -14 31 -20
75 -23 57 -3 60 -2 69 25 14 39 -2 50 -76 53 -35 2 -110 6 -167 10 -87 6 -103
5 -99 -7z"/>
<path d="M4054 4015 c-11 -29 2 -37 19 -11 15 23 16 26 2 26 -9 0 -18 -7 -21
-15z"/>
<path d="M7132 4014 c9 -9 21 -13 27 -10 20 13 11 26 -16 26 -25 0 -26 -1 -11
-16z"/>
<path d="M9610 3998 c0 -14 33 -68 41 -68 11 0 12 21 1 35 -10 14 -42 39 -42
33z"/>
<path d="M4380 3970 c0 -14 -3 -35 -6 -47 -4 -14 -2 -23 5 -23 24 0 74 -47 93
-87 11 -23 42 -65 69 -93 27 -28 49 -55 49 -61 0 -6 10 -9 23 -7 19 3 22 8 20
48 -1 25 -2 54 -3 65 -1 40 -50 115 -76 115 -7 0 -22 12 -34 27 -25 32 -73 63
-98 63 -10 0 -23 5 -30 12 -9 9 -12 7 -12 -12z"/>
<path d="M7703 3974 c-17 -13 -16 -15 7 -33 50 -40 106 -28 75 16 -18 26 -60
34 -82 17z"/>
<path d="M7377 3973 c-4 -3 0 -14 9 -24 15 -17 15 -19 -10 -30 -17 -8 -26 -20
-26 -36 0 -28 1 -28 50 -3 21 11 46 17 56 13 19 -7 44 20 44 49 0 13 -8 18
-29 18 -17 0 -33 5 -36 10 -7 11 -48 14 -58 3z"/>
<path d="M4800 3965 c0 -17 39 -75 51 -75 11 0 77 -46 94 -66 17 -19 49 -21
52 -4 2 10 -10 22 -32 33 -22 11 -35 24 -35 36 0 22 -56 61 -87 61 -10 0 -24
5 -31 12 -7 7 -12 8 -12 3z"/>
<path d="M7620 3960 c0 -5 7 -10 15 -10 8 0 15 5 15 10 0 6 -7 10 -15 10 -8 0
-15 -4 -15 -10z"/>
<path d="M8048 3928 c-31 -11 -35 -20 -14 -37 21 -17 70 -10 74 11 5 24 -27
37 -60 26z"/>
<path d="M4704 3908 c-5 -9 -24 -18 -43 -20 -47 -4 -54 -28 -8 -28 36 0 72 29
65 52 -3 9 -7 8 -14 -4z"/>
<path d="M9690 3917 c0 -3 4 -16 9 -29 5 -13 12 -36 16 -51 7 -33 25 -27 25 9
0 21 5 24 35 24 19 0 35 4 35 10 0 5 -18 9 -40 8 -26 -1 -47 5 -60 17 -11 10
-20 15 -20 12z"/>
<path d="M5391 3892 c-7 -14 -5 -21 10 -30 10 -7 19 -21 19 -32 0 -23 22 -36
41 -25 8 6 7 10 -5 17 -9 5 -16 21 -16 36 0 36 -35 60 -49 34z"/>
<path d="M6450 3880 c0 -5 3 -10 8 -10 7 0 60 -45 130 -111 32 -29 34 -30 52
-14 15 14 29 16 65 11 25 -4 45 -5 45 -3 0 2 -5 18 -11 36 -11 31 -11 31 -84
31 -84 0 -109 7 -148 44 -28 26 -57 34 -57 16z"/>
<path d="M7587 3883 c-12 -12 -8 -20 18 -31 22 -10 25 -9 25 7 0 10 -7 22 -16
25 -19 7 -19 7 -27 -1z"/>
<path d="M9250 3881 c0 -5 5 -13 10 -16 6 -3 10 -20 10 -36 0 -20 4 -29 13
-26 7 2 12 20 12 43 0 33 -4 40 -22 42 -13 2 -23 -1 -23 -7z"/>
<path d="M7048 3864 c-50 -21 -56 -43 -21 -71 15 -13 33 -21 38 -20 9 4 11 12
14 64 1 16 6 20 21 16 14 -4 20 0 20 11 0 20 -24 20 -72 0z"/>
<path d="M9550 3873 c0 -15 46 -73 58 -73 16 0 15 5 -4 46 -10 21 -24 34 -35
34 -11 0 -19 -3 -19 -7z"/>
<path d="M4724 3859 c-13 -22 -11 -73 4 -120 16 -47 53 -79 93 -79 13 0 24
-10 30 -27 10 -26 68 -73 91 -73 6 0 46 -12 88 -26 72 -25 83 -32 146 -102 67
-73 103 -109 251 -253 l73 -70 60 3 c51 2 63 6 76 26 13 19 21 22 47 17 18 -4
48 -18 68 -31 19 -13 44 -24 55 -24 11 0 31 -12 45 -26 22 -24 29 -26 81 -21
40 3 63 1 77 -9 28 -20 157 -16 153 5 -2 10 5 12 29 7 17 -3 40 -6 50 -6 11 0
19 -4 19 -10 0 -5 -11 -10 -25 -10 -48 0 -28 -28 28 -38 28 -5 60 -13 70 -17
15 -6 17 -4 11 19 -7 30 15 37 36 11 7 -8 19 -15 26 -15 8 0 32 -18 54 -40 56
-56 77 -52 72 13 -1 9 2 17 6 17 9 0 37 -42 34 -52 -1 -3 14 -18 33 -33 28
-21 42 -25 68 -20 24 5 37 2 46 -9 8 -9 28 -16 47 -16 18 0 45 -5 61 -11 15
-6 42 -12 58 -15 99 -12 125 -18 125 -26 0 -6 11 -7 24 -4 14 3 28 2 31 -4 3
-5 22 -10 42 -10 23 0 47 -9 72 -29 51 -40 75 -51 111 -51 20 0 38 -8 48 -20
15 -18 21 -19 55 -8 20 6 37 17 37 23 0 6 11 22 25 35 14 13 25 29 25 36 0 19
-35 26 -77 15 -60 -17 -142 -3 -181 30 -25 22 -43 29 -75 29 -24 0 -48 5 -54
11 -6 6 -64 13 -129 16 -110 5 -121 7 -147 31 -19 18 -38 26 -64 26 -29 0 -43
7 -64 31 -23 25 -90 56 -134 60 -5 1 -31 11 -58 24 -26 12 -52 19 -58 16 -5
-4 -17 -1 -25 6 -8 6 -48 14 -90 17 -80 5 -107 23 -97 63 4 15 0 19 -21 19
-21 0 -26 -5 -26 -25 0 -22 -4 -25 -34 -25 -21 0 -36 6 -40 15 -3 8 -18 15
-33 15 -32 0 -115 27 -123 40 -5 8 -40 14 -67 11 -22 -2 -14 -19 12 -25 14 -4
25 -11 25 -17 0 -5 10 -14 23 -20 16 -7 6 -8 -41 -5 -50 3 -66 9 -82 28 -21
25 -26 53 -11 62 14 9 19 89 7 109 -8 13 -7 20 4 27 20 13 57 13 62 -1 2 -6
36 -24 77 -40 40 -16 92 -45 114 -64 46 -40 57 -42 80 -17 22 25 21 29 -8 36
-14 4 -44 24 -68 46 -23 22 -48 40 -55 40 -14 0 -45 16 -81 43 -27 20 -97 23
-103 5 -3 -8 -31 -15 -69 -18 -62 -5 -64 -6 -67 -35 -2 -16 -8 -34 -13 -39
-14 -15 -11 -22 16 -34 14 -6 25 -18 25 -27 0 -20 10 -19 26 3 13 16 13 16 14
0 0 -10 -4 -18 -10 -18 -5 0 -10 -7 -10 -15 0 -17 -25 -20 -35 -5 -3 6 -25 10
-49 10 -38 0 -93 27 -115 57 -11 14 -70 53 -81 53 -14 0 -13 -35 3 -48 6 -6
24 -13 38 -17 15 -4 29 -17 36 -36 8 -19 18 -29 32 -29 17 0 21 -6 21 -29 0
-17 -4 -32 -9 -36 -14 -8 -95 22 -100 37 -8 24 -125 139 -172 169 -34 22 -55
48 -83 99 -20 38 -41 72 -47 75 -5 4 -23 34 -41 68 -37 74 -51 86 -99 87 -20
0 -42 6 -48 14 -7 8 -26 18 -42 21 -16 4 -31 11 -34 16 -6 9 -57 34 -93 44
-12 4 -30 18 -40 33 -32 49 -60 74 -68 61z m242 -205 c12 -7 31 -10 43 -7 29
7 71 -5 71 -21 0 -9 -8 -12 -24 -9 -13 3 -27 0 -30 -6 -12 -19 -43 -12 -75 15
-26 21 -34 24 -46 14 -13 -10 -15 -8 -15 14 0 24 3 26 28 20 15 -4 37 -12 48
-20z"/>
<path d="M7690 3851 c0 -5 6 -11 13 -13 17 -7 38 2 31 13 -7 12 -44 12 -44 0z"/>
<path d="M4320 3820 c0 -5 9 -10 21 -10 11 0 17 5 14 10 -3 6 -13 10 -21 10
-8 0 -14 -4 -14 -10z"/>
<path d="M5891 3806 c-36 -38 -22 -59 34 -50 44 6 45 6 37 -17 -5 -13 -18 -25
-30 -27 -19 -3 -36 -35 -24 -46 3 -3 19 -6 36 -6 35 1 70 26 80 57 5 15 18 23
51 28 35 5 45 10 45 25 0 31 -41 51 -101 49 -30 -1 -65 2 -79 5 -19 6 -31 2
-49 -18z"/>
<path d="M5025 3790 c3 -5 15 -10 26 -10 10 0 19 5 19 10 0 6 -12 10 -26 10
-14 0 -23 -4 -19 -10z"/>
<path d="M8841 3773 c-23 -19 -26 -32 -23 -138 2 -67 3 -69 18 -47 14 21 18
22 33 8 15 -14 20 -13 49 10 26 21 31 30 26 51 -4 13 -1 35 6 49 20 37 3 41
-33 8 -17 -17 -41 -37 -51 -44 -18 -14 -18 -13 -11 10 32 100 34 110 21 110
-8 0 -23 -8 -35 -17z"/>
<path d="M5080 3762 c0 -11 60 -40 90 -44 16 -2 30 -14 39 -33 8 -16 20 -42
28 -57 7 -14 13 -32 13 -40 0 -19 36 -48 62 -48 20 0 20 1 5 18 -10 10 -17 22
-17 26 0 4 -12 23 -26 41 -18 24 -25 43 -22 67 3 30 0 33 -37 43 -22 5 -50 16
-62 23 -24 13 -73 16 -73 4z"/>
<path d="M5630 3755 c0 -8 5 -15 10 -15 6 0 10 7 10 15 0 8 -4 15 -10 15 -5 0
-10 -7 -10 -15z"/>
<path d="M6174 3758 c-10 -16 26 -39 56 -36 17 2 26 10 28 26 3 20 -1 22 -37
22 -22 0 -43 -5 -47 -12z"/>
<path d="M9824 3759 c-8 -14 14 -29 33 -22 7 3 13 11 13 19 0 17 -36 19 -46 3z"/>
<path d="M9297 3753 c-17 -16 -4 -43 28 -62 25 -15 35 -27 35 -46 0 -24 2 -25
40 -19 33 5 40 4 40 -10 0 -9 8 -16 20 -16 26 0 26 20 0 27 -10 3 -22 14 -26
25 -4 15 -8 17 -20 7 -18 -15 -22 -11 -32 37 -6 30 -13 38 -26 36 -10 -2 -26
4 -35 12 -10 9 -21 13 -24 9z"/>
<path d="M4357 3744 c-12 -12 6 -34 28 -34 21 0 43 16 34 24 -9 8 -57 15 -62
10z"/>
<path d="M9632 3732 c-9 -6 -11 -21 -6 -51 6 -35 10 -42 28 -39 23 3 32 33 22
74 -7 25 -21 30 -44 16z"/>
<path d="M5720 3700 c0 -5 13 -10 29 -10 16 0 31 -6 35 -15 6 -16 76 -22 76
-6 0 5 -9 7 -21 4 -13 -4 -27 2 -40 16 -20 21 -79 30 -79 11z"/>
<path d="M6370 3700 c0 -22 49 -59 86 -65 102 -18 122 -33 63 -48 l-32 -8 21
-21 c11 -12 29 -22 39 -23 35 -3 63 -17 73 -36 6 -10 17 -19 24 -19 17 0 76
-30 76 -38 0 -13 -15 -28 -33 -35 -12 -5 -17 -15 -15 -29 3 -20 9 -23 43 -23
27 0 44 6 53 18 12 15 22 17 70 11 32 -3 69 -13 84 -20 15 -8 45 -14 67 -14
22 0 42 -4 45 -9 16 -25 156 -35 156 -11 0 8 -71 35 -125 49 -27 6 -30 11 -30
47 0 33 -3 39 -24 42 -21 3 -23 1 -17 -22 6 -23 3 -25 -40 -32 -34 -5 -48 -3
-54 7 -5 7 -6 17 -4 21 3 4 -7 13 -23 18 -15 6 -35 14 -44 19 -8 5 -45 12 -80
16 -57 6 -68 11 -85 36 -10 16 -27 32 -36 35 -10 3 -20 17 -23 32 -14 66 -26
77 -95 82 -36 3 -75 11 -87 18 -27 15 -53 16 -53 2z"/>
<path d="M6705 3700 c-3 -6 -17 -7 -30 -4 -24 6 -24 5 -14 -25 7 -21 22 -36
43 -45 18 -7 48 -33 68 -56 21 -25 40 -40 47 -36 21 13 11 52 -19 79 -16 15
-30 36 -30 46 0 10 -11 26 -25 35 -29 19 -32 19 -40 6z"/>
<path d="M9840 3685 c0 -19 29 -65 41 -65 5 0 9 9 9 20 0 11 -4 20 -9 20 -5 0
-13 9 -16 20 -7 24 -25 27 -25 5z"/>
<path d="M6110 3656 c0 -7 7 -19 15 -26 18 -15 20 -40 4 -40 -7 0 -17 7 -24
17 -7 9 -17 13 -23 9 -19 -11 -14 -24 14 -43 23 -15 28 -15 38 -2 31 39 96 53
96 20 0 -11 12 -23 30 -31 17 -7 30 -16 30 -21 0 -15 22 -10 36 9 12 16 14 16
37 -7 34 -31 65 -13 35 21 -7 8 -18 22 -23 32 -6 10 -46 30 -95 47 -93 31
-170 38 -170 15z"/>
<path d="M6942 3646 c-11 -19 48 -56 89 -56 52 0 153 -34 195 -66 32 -25 36
-25 151 -20 137 6 160 11 168 37 7 20 45 24 95 10 24 -7 23 -8 -10 -15 -19 -3
-46 -16 -59 -27 -21 -17 -22 -22 -10 -30 25 -16 89 -10 116 11 33 26 57 25 92
-1 19 -14 36 -19 50 -14 25 7 25 16 7 70 -12 34 -19 41 -48 46 -18 3 -42 10
-53 15 -18 8 -196 10 -372 4 -55 -2 -81 2 -115 19 -35 16 -66 21 -166 23 -68
2 -126 -1 -130 -6z"/>
<path d="M9672 3609 c2 -7 10 -15 17 -17 8 -3 12 1 9 9 -2 7 -10 15 -17 17 -8
3 -12 -1 -9 -9z"/>
<path d="M4250 3601 c0 -8 43 -41 55 -41 3 0 5 5 5 10 0 6 -7 10 -15 10 -8 0
-15 7 -15 15 0 8 -7 15 -15 15 -8 0 -15 -4 -15 -9z"/>
<path d="M9900 3577 c0 -24 35 -65 45 -55 8 7 -26 78 -37 78 -4 0 -8 -11 -8
-23z"/>
<path d="M5850 3568 c0 -7 -11 -24 -25 -38 -31 -32 -25 -65 9 -56 87 25 118
29 137 18 10 -7 27 -12 36 -12 10 0 40 -16 67 -35 27 -19 60 -35 72 -35 13 0
25 -4 28 -9 7 -11 88 -51 104 -51 6 0 16 9 22 20 9 17 8 20 -14 20 -14 0 -27
4 -30 9 -3 4 -26 16 -52 26 -66 25 -113 57 -114 78 0 19 -13 22 -39 8 -21 -12
-37 -2 -43 24 -3 16 -12 20 -43 21 -22 0 -50 6 -62 12 -28 15 -53 15 -53 0z"/>
<path d="M6446 3564 c-7 -18 1 -37 13 -29 5 2 11 14 14 25 6 24 -18 28 -27 4z"/>
<path d="M9718 3552 c-37 -4 -35 -24 5 -42 18 -9 34 -25 37 -38 7 -34 25 -28
28 11 4 41 -30 74 -70 69z"/>
<path d="M4587 3544 c-25 -25 12 -84 54 -84 9 0 22 -16 32 -40 11 -29 21 -40
36 -40 11 0 28 -11 37 -25 9 -14 20 -25 24 -25 5 0 21 -5 37 -12 15 -6 37 -12
48 -12 13 -1 21 -9 23 -23 3 -18 10 -23 32 -23 37 0 61 -10 54 -22 -6 -10 -95
0 -104 12 -6 8 -119 28 -125 22 -11 -11 19 -32 45 -32 16 0 52 -16 81 -35 41
-27 64 -35 99 -35 25 0 54 -7 64 -15 11 -8 38 -15 59 -15 22 0 58 -9 81 -19
23 -11 68 -31 100 -46 33 -15 65 -33 71 -42 10 -13 12 -13 24 1 15 17 62 12
99 -12 12 -8 54 -20 94 -28 39 -7 81 -22 92 -31 49 -42 90 -65 119 -67 39 -1
46 21 11 34 -16 6 -49 31 -76 56 -36 33 -55 44 -80 44 -18 0 -64 12 -103 25
-39 14 -92 25 -120 25 -38 0 -55 5 -68 20 -9 11 -31 23 -48 27 -19 3 -34 14
-36 24 -4 12 -25 25 -60 36 -32 10 -59 25 -65 38 -14 25 -28 35 -51 35 -25 0
-140 58 -150 76 -4 8 -20 14 -36 14 -48 0 -104 34 -116 71 -11 31 -16 34 -54
37 -25 2 -44 9 -48 18 -3 8 -13 14 -22 14 -10 0 -24 14 -32 31 -8 16 -18 27
-22 23z"/>
<path d="M4358 3529 c-28 -16 -22 -39 10 -39 20 0 33 -9 51 -35 27 -40 41 -43
66 -15 17 18 17 21 1 45 -24 37 -97 62 -128 44z"/>
<path d="M6386 3493 c-3 -3 -3 -10 0 -14 7 -12 34 -11 34 0 0 11 -26 22 -34
14z"/>
<path d="M8802 3488 c-12 -12 -17 -68 -6 -68 4 0 13 8 20 18 25 32 12 76 -14
50z"/>
<path d="M4183 3478 c-13 -17 -24 -48 -17 -48 18 0 44 24 44 40 0 23 -13 26
-27 8z"/>
<path d="M4540 3446 c0 -7 -3 -28 -6 -45 -7 -35 1 -38 35 -12 19 14 22 24 17
45 -7 28 -46 38 -46 12z"/>
<path d="M5303 3448 c2 -7 12 -13 22 -13 10 0 20 6 23 13 2 7 -6 12 -23 12
-17 0 -25 -5 -22 -12z"/>
<path d="M5645 3434 c-19 -17 -24 -29 -17 -36 16 -16 47 0 59 32 15 39 -3 40
-42 4z"/>
<path d="M9800 3428 c0 -25 20 -68 52 -108 15 -19 30 -47 33 -62 4 -16 14 -28
22 -28 22 0 5 69 -26 106 -14 17 -33 41 -41 53 -36 54 -39 58 -40 39z"/>
<path d="M6438 3418 c-36 -13 -35 -24 2 -32 21 -4 36 0 50 11 34 30 4 42 -52
21z"/>
<path d="M5353 3404 c-3 -8 2 -23 11 -32 15 -15 17 -15 33 0 13 14 14 20 3 32
-16 20 -39 20 -47 0z"/>
<path d="M7976 3370 c-32 -18 -51 -21 -90 -17 -62 6 -201 -24 -254 -55 -36
-20 -40 -20 -72 -5 -19 8 -59 18 -89 21 -36 4 -60 12 -73 26 -23 25 -48 26
-48 2 0 -26 36 -57 116 -98 103 -54 187 -69 236 -43 19 10 20 12 5 21 -24 13
-21 35 6 42 35 9 47 7 47 -9 0 -12 8 -14 41 -9 40 7 41 6 34 -17 -7 -22 -5
-21 25 9 39 37 44 38 95 16 28 -11 44 -13 60 -6 21 10 130 2 193 -13 33 -8 23
-27 -26 -50 -23 -11 -41 -23 -42 -26 0 -3 23 -9 51 -12 59 -7 97 6 79 28 -17
20 4 28 58 20 84 -12 92 -15 92 -41 0 -19 5 -24 26 -24 14 0 35 5 46 11 17 9
25 6 52 -20 35 -34 59 -40 54 -13 -2 9 -18 21 -36 27 -42 12 -41 32 2 43 19 6
44 20 56 32 29 29 56 23 52 -13 -3 -32 1 -33 39 -6 32 22 38 39 14 39 -17 0
-20 16 -5 25 6 3 10 22 10 41 0 47 -30 58 -135 48 -112 -11 -240 -3 -435 26
-145 22 -143 22 -184 0z m359 -59 l50 -7 -60 -6 c-33 -4 -73 -10 -90 -13 -33
-6 -61 7 -51 24 8 12 73 13 151 2z m272 -8 c2 -6 -5 -14 -16 -18 -11 -3 -37
-23 -57 -45 -31 -32 -67 -50 -109 -54 -5 -1 -12 14 -16 32 -6 31 -5 33 16 28
31 -8 91 19 111 50 12 18 24 24 42 22 14 -2 27 -8 29 -15z m-677 -9 c0 -11 -6
-14 -22 -9 -39 12 -44 25 -10 25 22 0 32 -5 32 -16z m76 1 c-21 -16 -32 -13
-21 4 3 6 14 11 23 11 15 -1 15 -2 -2 -15z"/>
<path d="M4269 3361 c-26 -21 -27 -19 26 -36 16 -5 20 21 6 43 -6 10 -13 9
-32 -7z"/>
<path d="M4136 3361 c-3 -4 1 -17 9 -27 8 -10 15 -28 15 -40 0 -22 49 -64 74
-64 17 0 14 15 -12 68 -9 17 -22 32 -29 32 -7 0 -17 9 -23 20 -11 21 -25 26
-34 11z"/>
<path d="M3980 3340 c0 -5 7 -10 15 -10 8 0 15 5 15 10 0 6 -7 10 -15 10 -8 0
-15 -4 -15 -10z"/>
<path d="M6817 3338 c-9 -7 -17 -26 -19 -43 -3 -29 -3 -29 54 -32 49 -2 58 1
63 17 8 26 -1 40 -26 40 -11 0 -22 7 -25 15 -7 18 -25 19 -47 3z"/>
<path d="M4332 3321 c-11 -7 -10 -10 3 -15 23 -9 25 -8 25 9 0 17 -9 19 -28 6z"/>
<path d="M6395 3320 c-10 -16 4 -30 28 -30 13 0 37 -13 55 -30 49 -45 108 -38
82 9 -6 12 -26 23 -48 27 -20 4 -46 13 -57 20 -23 16 -51 18 -60 4z"/>
<path d="M4600 3285 c0 -41 -9 -44 -42 -10 l-25 25 -11 -26 c-10 -21 -9 -26 6
-31 9 -4 28 -15 41 -25 32 -24 37 -23 55 14 21 42 20 65 -4 78 -18 10 -20 8
-20 -25z"/>
<path d="M6615 3310 c-3 -5 0 -10 8 -10 8 0 29 -13 47 -30 34 -32 58 -38 78
-18 20 20 14 26 -30 33 -24 4 -53 13 -65 21 -27 17 -30 17 -38 4z"/>
<path d="M13146 3295 c-4 -10 1 -15 14 -15 11 0 20 7 20 15 0 8 -6 15 -14 15
-8 0 -16 -7 -20 -15z"/>
<path d="M6931 3254 c-22 -20 -41 -40 -41 -45 0 -14 28 -11 33 4 3 8 13 3 32
-15 15 -16 34 -28 41 -28 7 0 15 -9 19 -19 7 -23 84 -71 113 -71 11 0 25 6 31
14 10 12 6 15 -19 21 -33 7 -41 25 -12 25 23 0 62 -40 62 -63 0 -10 5 -26 12
-37 7 -10 9 -22 5 -26 -12 -12 -139 -4 -209 13 -53 14 -70 15 -80 5 -21 -21
16 -45 79 -53 74 -9 113 -18 139 -31 15 -7 28 -7 43 1 17 10 25 9 37 -4 12
-12 27 -14 64 -9 43 6 50 4 71 -20 46 -53 97 -68 238 -70 75 -1 135 -7 143
-13 7 -6 33 -14 58 -18 25 -4 54 -14 65 -21 11 -8 31 -14 46 -14 29 0 53 -28
65 -74 4 -16 13 -26 24 -26 9 0 31 -7 49 -16 25 -13 35 -14 44 -4 15 14 -16
40 -48 40 -46 0 -60 45 -19 60 22 9 34 6 70 -15 l43 -25 14 21 c10 13 23 19
39 17 21 -3 23 1 23 37 0 39 -1 40 -35 41 -19 0 -48 6 -63 12 -18 8 -35 9 -44
3 -10 -5 -28 -4 -48 4 -17 8 -60 17 -95 21 -36 4 -74 13 -84 20 -12 8 -34 12
-55 8 -23 -3 -54 2 -86 14 -45 18 -51 24 -58 58 -9 45 6 90 26 77 6 -4 34 -8
61 -8 56 0 67 -14 36 -45 -22 -22 -19 -42 4 -25 7 6 32 23 55 38 23 15 41 33
38 40 -2 7 -23 13 -48 15 -24 2 -50 8 -57 14 -7 6 -52 14 -101 18 -74 7 -92
12 -114 33 -16 14 -44 27 -68 30 -30 4 -50 15 -71 37 l-29 32 -77 -6 c-59 -5
-84 -3 -106 9 -18 9 -41 13 -65 9 -27 -4 -48 1 -84 20 -26 14 -52 26 -56 26
-5 0 -27 -16 -50 -36z m146 -91 c-9 -9 -20 -13 -24 -9 -4 4 -1 11 7 16 25 16
35 11 17 -7z m263 -34 c50 -25 68 -29 100 -24 42 7 80 -7 80 -29 0 -8 9 -16
20 -19 28 -7 25 -25 -6 -33 -19 -5 -29 -2 -36 9 -15 28 -70 45 -167 50 -51 3
-95 8 -98 10 -8 9 30 66 44 67 1 0 30 -14 63 -31z m53 -82 c26 1 47 -2 47 -6
0 -10 95 -71 111 -71 16 0 49 -30 49 -45 0 -7 -18 -15 -40 -18 -41 -5 -92 14
-124 46 -9 8 -39 18 -68 22 -33 5 -64 17 -85 34 -31 24 -32 27 -16 39 12 9 28
11 48 6 17 -5 51 -7 78 -7z m578 -232 c-1 -15 -24 -12 -29 3 -3 9 2 13 12 10
10 -1 17 -7 17 -13z"/>
<path d="M9221 3240 c-18 -16 -39 -20 -95 -20 -47 -1 -81 -7 -102 -18 -99 -55
-104 -57 -125 -44 -26 17 -24 5 7 -35 25 -32 25 -38 18 -106 -10 -82 -8 -105
8 -124 18 -22 28 -1 30 63 0 32 5 64 10 71 6 7 3 15 -8 21 -11 6 -15 17 -11
31 3 12 -1 28 -10 37 -22 22 -11 27 33 16 22 -6 62 -13 91 -16 46 -6 53 -4 63
14 7 14 21 20 44 20 30 0 34 -4 46 -42 8 -24 19 -46 25 -50 5 -4 11 -20 12
-35 4 -55 40 -166 57 -175 14 -8 17 -21 14 -66 -3 -54 -2 -57 22 -60 14 -2 29
-10 33 -18 4 -8 18 -14 31 -14 33 0 64 -33 59 -63 -4 -19 1 -29 21 -42 24 -16
27 -16 72 6 40 21 44 25 28 34 -37 21 -64 55 -64 80 0 28 -36 50 -56 34 -17
-14 -51 17 -58 53 -4 18 -10 53 -13 78 -3 26 -15 57 -28 72 -13 15 -29 44 -35
65 -7 21 -16 42 -21 48 -5 5 -9 18 -9 29 0 11 -12 32 -27 48 -25 26 -25 29
-10 46 23 25 21 59 -2 72 -24 13 -21 13 -50 -10z"/>
<path d="M9350 3240 c-11 -7 -6 -10 20 -10 26 0 31 3 20 10 -8 5 -17 10 -20
10 -3 0 -12 -5 -20 -10z"/>
<path d="M4384 3219 c-4 -7 -25 -9 -59 -4 -57 7 -72 -2 -52 -29 12 -16 20 -16
77 -6 78 14 84 18 69 36 -14 17 -25 18 -35 3z"/>
<path d="M4449 3187 c-13 -17 -14 -28 -7 -42 9 -15 7 -22 -11 -36 -23 -18 -29
-53 -8 -47 6 3 18 17 25 31 16 32 35 34 62 7 11 -11 31 -20 44 -20 15 0 36
-13 55 -35 l30 -35 -31 -45 -32 -46 22 -42 c12 -23 21 -55 20 -71 -4 -43 18
-43 25 1 4 25 2 45 -8 60 -21 31 -19 39 15 87 l31 43 -18 54 c-17 50 -21 55
-63 69 -45 15 -54 21 -103 65 -15 14 -29 25 -30 25 -1 0 -9 -11 -18 -23z"/>
<path d="M6792 3189 c7 -22 75 -52 94 -41 15 9 15 11 -7 25 -35 22 -93 33 -87
16z"/>
<path d="M6917 3166 c-6 -15 22 -46 41 -46 18 0 24 18 12 40 -12 23 -45 27
-53 6z"/>
<path d="M7730 3166 c0 -10 9 -16 21 -16 24 0 21 23 -4 28 -10 2 -17 -3 -17
-12z"/>
<path d="M8000 3157 c0 -28 3 -28 89 -11 35 7 14 23 -42 30 -46 7 -47 6 -47
-19z"/>
<path d="M7860 3154 c-19 -7 -43 -13 -53 -13 -10 -1 -17 -6 -15 -13 3 -7 29
-11 69 -12 63 -1 64 0 67 27 4 31 -10 33 -68 11z"/>
<path d="M10200 3120 c0 -17 3 -19 19 -8 21 13 19 28 -5 28 -8 0 -14 -9 -14
-20z"/>
<path d="M4290 3110 l-25 -20 38 0 c40 0 40 0 31 24 -8 20 -13 20 -44 -4z"/>
<path d="M8190 3091 c-24 -13 -164 -33 -183 -25 -24 9 -69 -4 -61 -17 4 -7 24
-9 55 -5 38 5 51 3 55 -7 4 -11 25 -14 98 -11 99 3 306 -25 330 -45 9 -8 21
-8 39 -2 14 5 39 9 56 9 17 -1 39 6 49 16 15 12 30 15 68 10 27 -4 55 -11 62
-17 9 -7 16 -7 24 1 9 9 7 12 -10 12 -13 0 -22 6 -22 15 0 16 -2 16 -84 18
-38 0 -59 -4 -71 -16 -20 -21 -71 -22 -109 -2 -15 8 -40 15 -55 15 -14 0 -39
7 -55 15 -15 8 -43 15 -61 15 -18 0 -38 7 -45 15 -13 16 -56 19 -80 6z"/>
<path d="M9086 3077 c-19 -14 -13 -42 11 -51 9 -4 27 1 40 10 24 15 24 16 7
35 -20 22 -34 24 -58 6z"/>
<path d="M5705 3058 c10 -6 30 -24 43 -40 22 -26 52 -38 52 -20 0 18 -33 52
-50 52 -10 0 -22 5 -25 10 -3 6 -14 10 -23 10 -15 -1 -14 -2 3 -12z"/>
<path d="M4497 3043 c-14 -13 -6 -24 15 -21 27 4 36 28 11 28 -11 0 -23 -3
-26 -7z"/>
<path d="M4705 3041 c-9 -15 34 -50 62 -51 28 0 36 13 20 33 -15 21 -72 33
-82 18z"/>
<path d="M6716 3041 c-6 -9 24 -32 57 -44 27 -10 107 4 107 18 0 24 -151 48
-164 26z"/>
<path d="M4850 3012 c0 -4 9 -15 20 -25 11 -9 20 -22 20 -29 1 -20 71 -69 84
-59 7 6 18 4 30 -5 11 -8 32 -14 46 -14 32 0 50 -17 50 -46 0 -15 8 -25 23
-30 12 -4 25 -12 29 -18 4 -6 22 -12 40 -13 82 -7 101 -11 110 -26 6 -12 17
-15 36 -11 19 4 32 0 41 -10 8 -9 23 -16 35 -16 12 0 26 -4 32 -9 5 -5 27 -14
49 -20 22 -7 49 -16 60 -20 11 -5 33 -14 48 -20 15 -6 39 -11 53 -11 14 0 33
-9 43 -21 11 -14 31 -22 61 -25 122 -10 170 -11 170 -5 0 15 -46 48 -89 65
-41 16 -45 16 -62 0 -16 -14 -24 -15 -45 -6 -13 7 -32 12 -40 12 -9 0 -27 9
-41 20 -14 11 -38 20 -53 20 -15 0 -30 6 -33 13 -8 21 -129 77 -166 77 -24 0
-34 5 -38 19 -5 19 -29 26 -118 35 -95 10 -116 18 -129 51 -18 43 -52 67 -122
89 -33 10 -71 25 -86 32 -29 15 -58 18 -58 6z"/>
<path d="M10140 2978 c-1 -24 -7 -61 -15 -83 -20 -56 -19 -85 3 -85 16 0 18
11 20 105 1 58 0 105 -3 105 -3 0 -5 -19 -5 -42z"/>
<path d="M5936 2993 c-13 -13 -6 -63 9 -63 10 0 15 10 15 29 0 30 -12 46 -24
34z"/>
<path d="M10312 2980 l-23 -25 21 -3 c28 -5 32 1 28 29 l-3 24 -23 -25z"/>
<path d="M8060 2971 c0 -27 19 -36 37 -18 18 18 9 37 -18 37 -12 0 -19 -7 -19
-19z"/>
<path d="M4772 2938 c2 -14 16 -29 35 -39 18 -9 39 -22 47 -28 8 -7 17 -8 20
-3 7 12 -72 92 -91 92 -9 0 -13 -8 -11 -22z"/>
<path d="M7997 2954 c-8 -8 1 -24 14 -24 5 0 9 7 9 15 0 15 -12 20 -23 9z"/>
<path d="M10350 2926 c0 -8 -3 -22 -6 -31 -5 -13 -2 -16 17 -13 30 4 36 33 10
48 -17 8 -21 8 -21 -4z"/>
<path d="M5976 2880 c-15 -17 -24 -35 -20 -44 7 -18 54 -50 54 -37 0 19 41 23
65 7 31 -20 54 -20 75 -1 13 12 28 14 59 9 46 -7 53 -19 16 -28 -14 -4 -25
-12 -25 -19 0 -10 20 -13 78 -14 42 0 135 -4 205 -10 105 -8 133 -14 157 -32
16 -11 38 -21 49 -21 11 0 22 -9 26 -19 9 -30 31 -32 67 -8 47 32 49 57 5 57
-19 0 -40 6 -46 14 -6 7 -37 21 -69 31 -31 10 -78 31 -104 47 -45 28 -47 28
-81 12 -30 -14 -45 -15 -108 -6 -64 10 -77 15 -100 43 -25 30 -29 32 -77 26
-28 -3 -65 -2 -84 3 -85 21 -114 19 -142 -10z m339 -79 c7 -12 -12 -24 -25
-16 -11 7 -4 25 10 25 5 0 11 -4 15 -9z"/>
<path d="M4464 2885 c-4 -9 -2 -21 5 -28 6 -6 11 -21 11 -34 0 -19 25 -43 44
-43 12 0 5 48 -9 60 -8 6 -13 21 -12 33 2 26 -30 36 -39 12z"/>
<path d="M9170 2885 c0 -8 9 -19 19 -25 25 -13 61 -13 61 0 0 6 -6 10 -14 10
-7 0 -19 7 -26 15 -16 19 -40 19 -40 0z"/>
<path d="M8954 2865 c-4 -9 -3 -34 0 -58 5 -30 2 -48 -8 -62 -20 -26 -20 -45
-1 -45 8 0 15 5 15 10 0 18 18 10 23 -11 3 -11 15 -23 26 -26 12 -3 21 -11 21
-18 0 -20 36 -46 54 -39 9 3 16 1 16 -5 0 -6 -3 -11 -7 -11 -9 0 -33 -48 -33
-66 0 -12 22 -24 42 -24 5 0 7 12 3 29 -8 39 20 55 84 48 25 -3 55 -2 66 2 13
6 29 3 46 -7 27 -15 59 -11 59 8 0 5 -4 10 -9 10 -6 0 -22 11 -37 25 -15 14
-38 25 -53 24 -14 0 -51 7 -81 16 -62 20 -95 23 -127 11 -19 -6 -25 -3 -33 19
-5 14 -10 40 -10 56 0 76 -40 157 -56 114z"/>
<path d="M5650 2862 c0 -4 18 -25 40 -47 39 -38 40 -39 121 -39 48 -1 84 3 86
9 4 12 -102 39 -117 30 -5 -3 -28 8 -51 25 -40 28 -79 40 -79 22z"/>
<path d="M8646 2835 c-9 -26 49 -70 74 -55 7 4 24 4 38 -1 14 -6 31 -8 39 -5
25 10 13 26 -27 32 -21 4 -47 15 -56 25 -20 23 -60 25 -68 4z"/>
<path d="M8345 2831 c-8 -15 35 -35 47 -23 6 6 7 15 4 21 -9 14 -43 14 -51 2z"/>
<path d="M8547 2833 c-12 -11 -8 -33 6 -33 6 0 19 5 27 10 13 9 13 11 0 20
-18 12 -24 12 -33 3z"/>
<path d="M9082 2831 c4 -13 18 -16 19 -4 0 4 -5 9 -11 12 -7 2 -11 -2 -8 -8z"/>
<path d="M10116 2777 c-11 -8 -16 -19 -12 -26 8 -13 -32 -61 -51 -61 -16 0
-74 -80 -67 -91 11 -18 29 -8 42 21 15 34 32 40 32 11 0 -11 4 -22 9 -26 13
-7 51 48 51 74 0 12 9 30 20 41 23 23 24 30 7 53 -11 15 -15 16 -31 4z"/>
<path d="M5938 2727 c3 -28 13 -64 22 -80 l18 -29 7 32 c4 17 13 34 21 37 15
5 18 33 8 69 -5 17 -14 22 -43 22 l-38 1 5 -52z"/>
<path d="M6825 2770 c-3 -4 8 -18 24 -29 23 -17 44 -21 104 -21 43 0 79 -5 82
-11 4 -6 20 -8 38 -4 56 11 67 16 67 29 0 9 -38 16 -127 25 -71 6 -140 14
-155 16 -15 2 -30 0 -33 -5z"/>
<path d="M9210 2769 c0 -14 29 -43 36 -36 10 10 -7 47 -22 47 -8 0 -14 -5 -14
-11z"/>
<path d="M7664 2738 c-8 -13 43 -61 57 -53 16 10 10 33 -13 49 -27 19 -35 20
-44 4z"/>
<path d="M4710 2705 c0 -8 5 -15 10 -15 6 0 10 7 10 15 0 8 -4 15 -10 15 -5 0
-10 -7 -10 -15z"/>
<path d="M6090 2712 c0 -4 17 -15 37 -25 33 -14 39 -15 52 -2 13 12 11 16 -13
25 -32 12 -76 13 -76 2z"/>
<path d="M7792 2704 c2 -9 13 -23 24 -31 19 -12 24 -12 37 2 19 18 48 20 65 3
19 -19 40 6 22 27 -9 11 -32 15 -82 15 -59 0 -69 -2 -66 -16z"/>
<path d="M8610 2710 c0 -5 -22 -21 -50 -35 -27 -14 -50 -29 -50 -34 0 -5 16
-12 35 -15 27 -5 42 -2 65 14 52 37 66 80 25 80 -14 0 -25 -4 -25 -10z"/>
<path d="M6278 2692 c-66 -4 -60 -19 10 -27 31 -3 71 -10 87 -15 17 -5 49 -12
72 -16 36 -5 43 -3 53 16 6 12 9 24 6 27 -3 4 -34 5 -69 4 -35 -1 -74 2 -88 6
-13 4 -45 7 -71 5z"/>
<path d="M8259 2684 c-16 -19 -13 -21 67 -42 74 -20 117 -15 128 15 11 27 -8
35 -97 38 -66 2 -89 0 -98 -11z"/>
<path d="M8145 2680 c-8 -13 48 -40 65 -30 22 14 3 40 -29 40 -16 0 -32 -4
-36 -10z"/>
<path d="M6562 2663 c2 -11 14 -19 33 -21 30 -4 30 -4 11 17 -23 26 -49 28
-44 4z"/>
<path d="M8758 2673 c-21 -3 -28 -10 -28 -27 0 -29 32 -59 53 -50 11 4 28 -5
49 -26 44 -44 85 -60 128 -51 39 9 29 16 -34 25 -46 6 -71 27 -62 51 4 13 13
15 32 11 32 -8 49 1 34 19 -7 8 -25 11 -53 8 -38 -5 -45 -2 -60 21 -10 14 -21
25 -25 25 -4 -1 -19 -4 -34 -6z"/>
<path d="M7442 2641 c-12 -17 -19 -36 -16 -44 6 -17 45 -30 55 -19 8 9 -1 92
-10 92 -4 0 -17 -13 -29 -29z"/>
<path d="M8230 2617 c0 -7 25 -39 55 -72 30 -33 54 -67 52 -75 -1 -8 -18 -17
-37 -20 -19 -4 -44 -11 -55 -17 -15 -8 -29 -8 -54 3 -37 15 -127 19 -135 5 -8
-13 -110 0 -119 15 -10 17 -117 20 -117 3 0 -7 10 -9 25 -5 28 7 75 -2 75 -14
0 -14 -36 -21 -60 -12 -17 6 -39 3 -74 -10 -63 -23 -84 -17 -88 25 -2 20 -8
32 -18 32 -10 0 -14 -8 -13 -23 4 -34 -29 -44 -114 -34 -40 4 -77 6 -81 3 -27
-18 -44 -101 -22 -101 6 0 27 7 47 15 29 12 43 13 72 4 83 -27 122 -42 126
-50 11 -17 -9 -37 -48 -49 -23 -7 -55 -16 -71 -21 -16 -5 -48 -9 -72 -9 -38 0
-45 -4 -59 -30 -20 -38 -42 -38 -50 0 -4 16 -11 32 -15 35 -5 3 -1 20 10 37
14 24 16 37 9 56 -5 14 -8 45 -7 70 l3 46 -50 2 c-91 4 -214 23 -251 39 -20 8
-49 15 -64 15 -16 0 -35 3 -44 6 -33 13 -14 23 57 29 55 5 91 2 157 -13 47
-11 115 -22 153 -24 62 -4 67 -3 67 17 0 19 -5 20 -68 17 -52 -3 -77 0 -103
14 -51 26 -252 23 -283 -4 -38 -35 -61 -43 -82 -27 -12 9 -44 14 -90 15 -39 0
-74 3 -77 7 -4 3 -54 8 -113 10 -58 2 -116 9 -127 15 -12 7 -26 11 -32 9 -5
-1 -47 -4 -93 -6 -77 -2 -86 -1 -110 22 -24 23 -32 24 -134 22 -70 -1 -113 3
-122 10 -10 8 -16 9 -21 1 -9 -15 3 -30 24 -30 10 0 24 -7 31 -15 9 -11 28
-15 59 -14 61 2 180 -11 186 -21 3 -5 26 -18 51 -30 43 -21 46 -21 58 -5 10
14 16 15 34 6 25 -13 142 -25 219 -22 28 0 54 -3 57 -8 3 -5 25 -6 49 -4 51 6
87 -9 87 -37 0 -26 -61 -83 -112 -104 -24 -10 -50 -21 -58 -25 -8 -4 -44 -7
-80 -6 -54 2 -71 -2 -100 -21 -19 -13 -40 -24 -46 -24 -7 0 -19 -11 -27 -23
-13 -20 -27 -25 -83 -30 -37 -4 -72 -11 -77 -16 -5 -5 -32 -7 -59 -4 -37 4
-53 2 -67 -11 -16 -15 -25 -15 -64 -5 -30 7 -55 8 -74 2 -19 -7 -41 -6 -70 3
-36 11 -57 11 -125 -1 -46 -8 -90 -13 -98 -10 -8 3 -60 7 -114 9 -54 2 -103 9
-109 15 -6 6 -36 11 -67 11 -34 0 -64 6 -78 16 -12 8 -22 13 -22 10 0 -13 24
-56 32 -56 4 0 8 -7 8 -15 0 -22 -56 -19 -97 6 -18 12 -41 18 -50 15 -10 -4
-26 3 -43 19 -23 22 -33 25 -62 20 -21 -4 -37 -14 -43 -28 -11 -25 -68 -36
-91 -17 -15 13 -104 7 -163 -12 -40 -13 -50 -2 -52 57 l-1 40 -13 -30 c-8 -16
-14 -40 -15 -53 0 -29 -27 -82 -42 -82 -6 0 -17 8 -24 18 -12 16 -13 16 -19 0
-4 -11 2 -29 15 -48 l22 -31 -21 -6 c-25 -6 -23 3 -27 -116 -3 -121 -22 -163
-72 -161 -68 3 -72 4 -72 23 0 11 4 22 9 25 5 3 11 23 13 43 3 21 8 46 12 56
6 13 4 17 -10 17 -35 0 -60 -135 -31 -165 7 -7 37 -25 66 -40 l53 -26 -5 -57
c-3 -31 -8 -72 -12 -90 -5 -21 -2 -43 8 -65 31 -64 31 -84 3 -108 -31 -27 -33
-52 -6 -86 11 -14 20 -33 20 -42 0 -9 -9 -22 -20 -29 -21 -13 -27 -47 -10 -57
8 -5 7 -11 -1 -21 -15 -19 26 -34 91 -34 80 0 73 23 -9 32 -41 5 -36 26 6 30
34 3 38 6 36 28 -2 14 -3 58 -3 97 -1 44 -9 98 -21 135 -18 57 -18 65 -5 107
11 35 13 62 7 111 -6 48 -5 72 5 90 35 66 50 237 30 328 l-8 33 329 0 c180 0
362 0 403 1 41 0 298 -1 570 -2 l495 -2 -3 90 c-4 87 -3 90 20 95 37 10 66 -2
71 -29 2 -14 -1 -31 -8 -38 -7 -7 -16 -31 -20 -54 -4 -23 -14 -49 -22 -57 -25
-26 -9 -45 31 -38 24 4 36 2 36 -6 0 -15 45 -32 65 -25 17 7 20 50 4 59 -5 4
-18 0 -28 -9 -23 -21 -34 -20 -49 4 -14 22 -8 40 12 40 7 0 23 11 36 25 19 20
21 27 11 39 -20 24 -10 70 17 74 19 3 22 -1 22 -32 0 -20 5 -36 11 -36 23 0
133 85 218 170 121 120 144 121 221 10 73 -105 257 -280 294 -280 8 0 18 -4
21 -10 8 -13 56 -13 89 0 22 8 26 16 26 50 0 22 4 40 9 40 14 0 41 -41 41 -62
0 -12 10 -18 33 -20 39 -4 41 -18 4 -36 -32 -15 -37 -52 -8 -52 11 0 23 5 26
10 4 6 10 8 15 5 4 -3 15 -2 24 1 18 7 22 39 6 49 -27 17 7 25 76 19 97 -9
115 3 78 52 -15 19 -32 34 -40 34 -7 0 -16 16 -20 38 -4 20 -13 54 -20 75 -14
39 -9 64 21 101 15 20 15 20 29 0 13 -17 25 -19 99 -16 l85 2 5 -27 c3 -15 1
-35 -4 -45 -5 -9 -9 -45 -9 -78 0 -60 -1 -64 -41 -100 -23 -21 -39 -43 -35
-49 12 -18 45 -12 56 10 15 26 76 52 106 45 17 -5 24 -2 24 9 0 8 -9 15 -19
15 -16 0 -21 10 -26 53 -11 85 -4 120 24 127 17 4 28 17 36 40 10 31 13 32 22
16 9 -16 26 -20 91 -24 87 -5 92 -8 92 -74 0 -24 4 -28 30 -28 34 0 49 22 30
44 -19 24 23 39 79 30 54 -9 139 -6 161 6 12 7 8 11 -15 20 -16 7 -48 14 -70
17 -22 3 -47 9 -56 14 -10 5 -40 4 -70 -3 -44 -9 -62 -8 -98 4 l-45 16 32 16
c17 9 50 16 73 16 63 0 265 -22 279 -30 8 -5 8 -14 0 -35 -7 -19 -8 -31 0 -39
5 -5 10 -26 10 -46 0 -42 14 -60 49 -60 13 0 21 -3 17 -7 -4 -4 -21 -7 -39 -8
-25 0 -33 -5 -35 -22 -4 -24 21 -33 33 -13 4 6 21 8 39 4 30 -5 35 -2 53 29
17 28 28 35 64 40 31 4 49 1 60 -9 21 -19 66 -3 78 28 13 35 62 79 93 85 19 4
30 13 34 29 l6 23 39 -24 c21 -14 49 -25 62 -25 13 0 34 -12 48 -26 13 -14 34
-30 47 -35 12 -5 25 -17 29 -26 8 -23 23 -33 48 -33 11 0 32 -14 46 -31 25
-31 27 -31 63 -19 35 11 41 10 68 -10 29 -22 41 -22 123 -8 17 2 21 -3 23 -37
2 -25 -2 -43 -11 -50 -19 -14 -37 -69 -30 -95 5 -19 3 -21 -28 -16 -73 12 -83
11 -87 -6 -5 -28 32 -55 84 -62 27 -3 66 -9 87 -12 20 -3 37 -4 37 0 0 3 -17
21 -37 39 l-36 34 39 61 c21 33 45 61 52 61 15 1 16 -21 1 -36 -8 -8 -6 -15
10 -25 26 -16 27 -43 4 -57 -13 -7 -15 -13 -7 -21 7 -7 9 -30 6 -56 -4 -38 -2
-44 14 -44 24 0 35 9 57 42 29 45 22 92 -18 132 -40 40 -43 56 -15 74 23 14
26 40 6 48 -8 3 -19 18 -25 33 -13 30 -59 52 -93 43 -16 -4 -20 -2 -16 10 4 8
3 21 -2 28 -6 9 -11 7 -20 -10 -11 -20 -17 -22 -62 -17 -56 7 -80 21 -71 43 6
16 -8 19 -23 4 -12 -12 -94 17 -146 52 -20 14 -58 31 -85 38 -26 7 -57 21 -69
31 -11 11 -28 19 -38 19 -9 0 -27 5 -39 12 -37 20 -145 28 -176 12 -48 -24
-114 -28 -149 -10 -19 10 -51 15 -81 14 -35 -2 -55 3 -68 14 -15 14 -43 17
-143 19 -148 2 -176 9 -184 49 -4 20 -13 31 -30 36 -13 3 -27 13 -30 22 -15
39 -38 72 -52 72 -7 0 -14 -6 -14 -13z m-121 -241 c-11 -9 -100 -15 -94 -6 3
6 27 10 52 10 26 0 44 -2 42 -4z m-391 -212 c3 -21 -21 -54 -39 -54 -10 0 -12
63 -2 74 13 13 38 1 41 -20z m-1298 -29 c13 -16 6 -35 -15 -35 -16 0 -38 34
-28 44 11 10 30 7 43 -9z m3340 -7 c0 -19 -2 -20 -10 -8 -13 19 -13 30 0 30 6
0 10 -10 10 -22z m-2280 -24 c0 -17 -22 -14 -28 4 -2 7 3 12 12 12 9 0 16 -7
16 -16z"/>
<path d="M10246 2623 c-15 -15 -2 -20 49 -20 36 0 54 4 52 11 -4 12 -90 19
-101 9z"/>
<path d="M4585 2591 c-9 -16 21 -24 42 -12 10 6 13 11 6 11 -6 0 -18 3 -26 6
-8 3 -18 1 -22 -5z"/>
<path d="M9936 2575 c6 -25 -8 -35 -21 -15 -8 13 -62 13 -70 1 -3 -5 -1 -12 5
-16 15 -10 12 -35 -5 -35 -8 0 -15 5 -15 10 0 6 -5 10 -10 10 -7 0 -8 -14 -4
-37 9 -50 12 -52 33 -24 13 17 29 24 57 25 32 1 40 5 42 24 2 12 8 22 13 22
17 0 9 35 -11 48 -19 12 -20 11 -14 -13z"/>
<path d="M8712 2562 c-33 -5 -25 -36 11 -40 21 -3 27 1 27 17 0 24 -7 28 -38
23z"/>
<path d="M10320 2555 c0 -9 5 -15 11 -13 6 2 11 8 11 13 0 5 -5 11 -11 13 -6
2 -11 -4 -11 -13z"/>
<path d="M4636 2544 c-7 -18 0 -34 15 -34 5 0 9 11 9 25 0 28 -15 34 -24 9z"/>
<path d="M5610 2531 c0 -13 37 -24 50 -16 6 4 8 11 5 16 -8 12 -55 12 -55 0z"/>
<path d="M9595 2521 c-6 -5 -19 -11 -30 -13 -15 -2 -21 -13 -25 -43 -4 -32
-10 -41 -27 -43 -29 -4 -29 -5 5 -74 23 -48 30 -56 47 -50 11 3 32 7 48 7 36
2 43 11 25 32 -37 43 -27 150 17 166 8 4 15 11 15 17 0 12 -62 13 -75 1z"/>
<path d="M7470 2505 c-10 -12 -10 -21 -2 -40 10 -21 16 -23 49 -18 55 8 59 17
20 47 -39 30 -50 32 -67 11z"/>
<path d="M12786 2495 c-9 -13 -16 -32 -16 -42 0 -14 6 -11 25 12 25 31 32 55
16 55 -5 0 -16 -11 -25 -25z"/>
<path d="M7615 2470 c-3 -5 3 -10 15 -10 12 0 18 5 15 10 -3 6 -10 10 -15 10
-5 0 -12 -4 -15 -10z"/>
<path d="M10236 2471 c-6 -9 63 -61 82 -61 23 0 12 36 -17 53 -32 19 -57 22
-65 8z"/>
<path d="M9787 2383 c3 -38 9 -75 13 -83 4 -8 5 -30 3 -48 l-5 -33 46 31 c25
17 46 34 46 37 0 3 -11 18 -25 35 -16 18 -25 42 -25 62 0 19 -8 40 -18 49 -33
30 -40 21 -35 -50z"/>
<path d="M4806 2422 c-14 -13 -4 -22 25 -22 16 0 28 4 25 9 -7 11 -43 21 -50
13z"/>
<path d="M4670 2395 c0 -14 5 -25 10 -25 6 0 10 11 10 25 0 14 -4 25 -10 25
-5 0 -10 -11 -10 -25z"/>
<path d="M4886 2381 c15 -14 54 -23 54 -13 0 11 -24 22 -48 22 -10 0 -12 -3
-6 -9z"/>
<path d="M12909 2340 c-18 -27 -39 -50 -47 -50 -12 0 -12 -4 3 -20 16 -17 16
-23 4 -52 -7 -18 -19 -37 -26 -41 -14 -9 -18 -37 -5 -37 20 0 52 33 52 54 0
13 9 31 20 41 16 15 18 21 8 33 -10 12 -7 20 22 43 20 17 46 29 62 29 37 0 35
15 -4 34 -46 24 -54 21 -89 -34z"/>
<path d="M12770 2355 c0 -14 5 -25 10 -25 6 0 10 11 10 25 0 14 -4 25 -10 25
-5 0 -10 -11 -10 -25z"/>
<path d="M10248 2324 c-8 -18 -9 -31 -2 -42 21 -33 34 -25 34 22 0 51 -14 60
-32 20z"/>
<path d="M4706 2291 c-3 -5 1 -14 8 -20 16 -13 32 2 21 19 -8 12 -22 13 -29 1z"/>
<path d="M5155 2290 c3 -5 11 -10 16 -10 6 0 28 -14 50 -32 21 -17 42 -29 45
-26 9 10 -17 43 -48 61 -32 19 -73 23 -63 7z"/>
<path d="M9150 2283 c0 -10 -3 -41 -6 -69 -6 -45 -4 -54 16 -72 47 -43 67 16
30 88 -11 22 -20 46 -20 55 0 8 -4 15 -10 15 -5 0 -10 -8 -10 -17z"/>
<path d="M13059 2213 c-33 -54 -33 -53 -5 -53 16 0 29 7 33 18 4 9 13 22 22
28 17 13 8 44 -13 44 -8 0 -25 -17 -37 -37z"/>
<path d="M4920 2220 c0 -5 11 -10 25 -10 14 0 25 5 25 10 0 6 -11 10 -25 10
-14 0 -25 -4 -25 -10z"/>
<path d="M10257 2180 c-3 -13 2 -25 16 -35 19 -14 22 -14 25 -1 4 18 -15 56
-27 56 -5 0 -11 -9 -14 -20z"/>
<path d="M7015 2173 c-27 -7 -45 -23 -45 -39 0 -19 36 -18 44 1 5 14 9 14 36
0 36 -19 50 -13 50 21 0 21 -4 24 -32 23 -18 -1 -42 -4 -53 -6z"/>
<path d="M9012 2143 c-10 -4 -10 -8 -2 -18 17 -20 8 -69 -12 -73 -9 -2 -25 6
-35 17 -22 27 -53 28 -53 2 0 -27 10 -31 72 -33 90 -1 98 0 98 21 0 11 -4 23
-10 26 -18 11 -11 35 10 35 11 0 20 7 20 15 0 11 -10 15 -37 14 -21 0 -44 -3
-51 -6z"/>
<path d="M8754 2115 c-9 -14 -14 -31 -11 -39 10 -26 107 -28 107 -1 0 18 -46
65 -64 65 -9 0 -23 -11 -32 -25z"/>
<path d="M8494 2113 c-21 -9 -56 -18 -77 -20 -28 -4 -37 -9 -35 -22 4 -21 137
-37 188 -21 19 5 49 11 65 12 25 3 30 8 33 33 l3 30 -69 1 c-40 1 -85 -5 -108
-13z"/>
<path d="M9370 2102 c0 -12 23 -32 37 -32 9 0 8 6 -4 20 -18 21 -33 26 -33 12z"/>
<path d="M6950 2069 c-14 -25 -5 -69 14 -69 46 0 58 28 30 68 -19 28 -30 28
-44 1z"/>
<path d="M9482 2074 c-32 -22 -27 -36 24 -67 35 -21 49 -25 60 -16 7 6 18 8
24 4 15 -9 24 23 11 39 -6 7 -9 20 -6 28 4 11 -3 17 -26 22 -47 9 -62 8 -87
-10z"/>
<path d="M10261 2077 c-6 -8 -8 -17 -5 -20 10 -9 45 13 39 24 -9 13 -21 11
-34 -4z"/>
<path d="M4470 2060 c0 -11 5 -20 10 -20 6 0 10 9 10 20 0 11 -4 20 -10 20 -5
0 -10 -9 -10 -20z"/>
<path d="M8111 2065 c-51 -23 -27 -37 55 -33 61 3 69 5 69 23 0 17 -7 20 -45
22 -25 2 -60 -4 -79 -12z"/>
<path d="M9171 2066 c-30 -36 22 -195 59 -180 8 4 28 9 45 13 59 13 39 71 -24
71 -49 0 -64 16 -45 46 12 17 13 27 4 43 -13 25 -23 26 -39 7z"/>
<path d="M6697 2053 c-18 -17 -5 -33 28 -33 40 0 49 24 13 34 -29 7 -33 7 -41
-1z"/>
<path d="M10097 2054 c-10 -11 3 -24 22 -24 10 0 24 7 31 15 11 13 8 15 -17
15 -16 0 -33 -3 -36 -6z"/>
<path d="M10016 2033 c-8 -21 8 -38 28 -30 22 8 20 24 -3 36 -15 8 -20 7 -25
-6z"/>
<path d="M12975 2030 c10 -11 22 -17 27 -14 12 8 -11 34 -30 34 -13 0 -12 -3
3 -20z"/>
<path d="M5028 1983 c12 -2 32 -2 45 0 12 2 2 4 -23 4 -25 0 -35 -2 -22 -4z"/>
<path d="M9387 1948 c-14 -10 -17 -21 -12 -41 8 -31 36 -36 82 -13 15 8 36 17
46 20 19 6 33 33 23 44 -4 3 -11 0 -15 -7 -9 -13 -38 -12 -86 4 -11 3 -28 0
-38 -7z"/>
<path d="M7683 1925 c-15 -11 -42 -15 -81 -14 -66 2 -82 -4 -82 -30 0 -25 11
-33 26 -20 19 16 36 1 32 -29 -3 -27 -3 -27 71 -30 42 -2 79 2 85 8 5 5 36 10
69 10 42 0 58 3 55 13 -3 7 -33 14 -84 17 -55 3 -79 9 -78 18 4 44 2 43 61 40
48 -3 58 0 61 15 3 15 -5 17 -55 17 -36 0 -67 -6 -80 -15z m-15 -57 c-2 -6
-14 -15 -26 -19 -18 -7 -22 -5 -22 11 0 15 7 20 26 20 15 0 24 -5 22 -12z"/>
<path d="M10031 1917 c-43 -21 -65 -47 -41 -47 22 0 120 52 115 61 -9 13 -25
10 -74 -14z"/>
<path d="M10184 1865 c-4 -15 -1 -32 7 -41 12 -15 15 -14 30 5 10 12 25 21 34
21 9 0 15 6 12 13 -2 6 -11 11 -20 9 -8 -1 -18 2 -22 8 -12 19 -35 10 -41 -15z"/>
<path d="M9168 1824 c-9 -19 -9 -33 0 -57 9 -25 9 -34 -2 -46 -20 -23 -32
-291 -15 -323 7 -13 15 -70 18 -128 l6 -105 35 -3 c19 -2 39 -10 43 -18 5 -8
24 -14 48 -14 52 0 48 -24 -4 -28 -21 -2 -37 -9 -37 -15 0 -12 99 -47 133 -47
25 0 21 -27 -5 -34 -13 -3 -41 -6 -63 -7 -58 -1 -15 -17 48 -18 34 -1 47 -5
45 -13 -3 -9 -30 -14 -79 -16 -86 -3 -107 -8 -92 -23 14 -14 236 -14 241 0 2
6 -3 11 -11 11 -9 0 -18 8 -21 18 -8 29 -4 106 6 119 16 20 2 40 -33 47 -18 3
-38 11 -46 17 -17 15 -17 49 0 49 17 0 63 48 54 56 -3 4 -19 -6 -35 -21 -31
-29 -92 -55 -127 -55 -20 1 -19 1 1 18 20 17 21 21 8 58 -17 48 -18 76 -2 92
9 9 8 16 -5 30 -25 28 -23 126 3 159 14 18 20 41 20 78 0 28 6 65 14 81 8 16
16 50 19 77 4 44 3 48 -20 53 -40 10 -56 -15 -55 -85 0 -33 -3 -63 -9 -66 -5
-4 -9 -23 -9 -44 0 -31 -5 -40 -25 -49 -14 -7 -28 -12 -30 -12 -11 0 -4 90 11
150 25 97 3 184 -28 114z m62 -420 c0 -8 -4 -14 -10 -14 -5 0 -10 9 -10 21 0
11 5 17 10 14 6 -3 10 -13 10 -21z"/>
<path d="M12657 1808 c-9 -92 -7 -138 6 -138 25 0 36 55 21 101 -8 23 -12 50
-9 60 4 10 2 19 -4 19 -5 0 -12 -19 -14 -42z"/>
<path d="M10091 1816 c-9 -10 -9 -16 -1 -21 17 -10 62 4 57 18 -5 18 -42 20
-56 3z"/>
<path d="M9367 1813 c-17 -4 -17 -6 -3 -22 9 -10 18 -46 22 -89 7 -77 16 -92
40 -71 12 9 14 24 10 53 -3 23 -7 61 -9 86 -2 47 -14 55 -60 43z"/>
<path d="M9530 1803 c0 -10 -7 -27 -15 -37 -21 -28 -19 -36 10 -36 15 0 28 7
32 18 4 9 13 22 22 28 21 16 6 44 -24 44 -17 0 -25 -6 -25 -17z"/>
<path d="M7485 1800 c3 -5 12 -10 20 -10 8 0 17 5 20 10 4 6 -5 10 -20 10 -15
0 -24 -4 -20 -10z"/>
<path d="M9763 1793 c-14 -9 -23 -26 -23 -40 0 -15 -12 -37 -31 -54 -22 -20
-29 -34 -24 -48 8 -25 -30 -101 -50 -101 -11 0 -15 13 -15 51 0 42 -5 56 -25
75 l-25 23 0 -24 c0 -13 5 -27 10 -30 6 -3 10 -24 10 -45 0 -22 6 -43 13 -47
22 -13 39 -73 26 -89 -6 -8 -9 -21 -5 -29 6 -17 51 -21 61 -5 3 5 14 1 25 -10
11 -11 31 -20 45 -20 22 0 25 3 19 24 -3 13 -1 33 5 43 7 14 6 32 -5 64 -12
34 -14 65 -9 134 4 50 11 95 15 100 12 17 20 45 12 44 -4 0 -17 -7 -29 -16z"/>
<path d="M9873 1798 c2 -7 10 -13 17 -13 7 0 15 6 18 13 2 7 -5 12 -18 12 -13
0 -20 -5 -17 -12z"/>
<path d="M4408 1624 c-4 -3 3 -15 14 -26 24 -24 50 -9 28 17 -13 15 -32 20
-42 9z"/>
<path d="M12851 1608 c0 -13 -2 -33 -6 -45 -4 -13 -3 -23 2 -23 12 0 36 67 28
80 -11 18 -25 11 -24 -12z"/>
<path d="M10130 1590 c0 -5 7 -10 15 -10 8 0 15 5 15 10 0 6 -7 10 -15 10 -8
0 -15 -4 -15 -10z"/>
<path d="M10110 1514 c0 -31 23 -28 28 4 2 15 -2 22 -12 22 -11 0 -16 -9 -16
-26z"/>
<path d="M9420 1496 c0 -14 5 -26 10 -26 6 0 10 9 10 19 0 11 -4 23 -10 26 -6
4 -10 -5 -10 -19z"/>
<path d="M10116 1453 c-3 -3 -6 -31 -6 -62 0 -64 14 -58 24 11 6 42 -2 67 -18
51z"/>
<path d="M12621 1438 c0 -10 -10 -27 -21 -38 -11 -11 -20 -29 -20 -39 0 -11
-6 -21 -12 -24 -7 -2 -10 -7 -6 -11 3 -4 16 -1 27 6 24 15 44 68 38 100 -3 15
-5 17 -6 6z"/>
<path d="M9470 1404 c-6 -14 -10 -34 -10 -44 0 -10 -4 -22 -10 -25 -13 -8 -13
-52 0 -60 16 -10 50 33 50 63 0 16 7 37 15 48 22 28 18 44 -10 44 -18 0 -28
-7 -35 -26z"/>
<path d="M4430 1396 c0 -17 60 -32 86 -22 30 11 8 31 -39 34 -37 2 -47 0 -47
-12z"/>
<path d="M9656 1351 c-4 -6 -21 -14 -39 -19 -18 -5 -32 -15 -32 -23 0 -10 16
-14 69 -16 37 0 73 -6 79 -12 14 -14 47 14 47 40 0 23 -6 27 -67 35 -33 4 -53
2 -57 -5z"/>
<path d="M10003 1234 c-3 -8 -1 -20 6 -27 14 -14 47 15 37 32 -10 16 -36 13
-43 -5z"/>
<path d="M10130 1240 c20 -13 63 -13 55 0 -3 6 -21 10 -38 10 -24 0 -28 -3
-17 -10z"/>
<path d="M12520 1220 c0 -21 4 -30 13 -27 6 2 12 14 12 27 0 13 -6 25 -12 28
-9 2 -13 -7 -13 -28z"/>
<path d="M10880 1230 c-12 -8 -11 -10 8 -10 12 0 22 5 22 10 0 13 -11 13 -30
0z"/>
<path d="M9705 1220 c-8 -13 4 -70 15 -70 11 0 20 26 20 56 0 24 -23 33 -35
14z"/>
<path d="M10084 1136 c-8 -21 -1 -61 11 -61 6 0 11 10 13 23 2 13 10 26 18 29
23 9 16 23 -11 23 -14 0 -28 -6 -31 -14z"/>
<path d="M12597 1116 c-6 -16 11 -36 30 -36 7 0 13 11 13 25 0 18 -5 25 -19
25 -10 0 -21 -6 -24 -14z"/>
<path d="M4450 1098 c0 -2 4 -18 10 -37 10 -37 -4 -69 -49 -108 l-26 -22 136
-1 c74 0 139 4 145 9 5 5 27 11 49 13 35 3 40 6 40 28 0 23 -4 25 -38 23 -21
-1 -57 -14 -82 -28 -48 -28 -115 -32 -123 -6 -4 11 3 12 30 7 27 -5 40 -2 58
14 13 11 27 20 32 20 4 0 8 5 8 10 0 6 -22 10 -49 10 -27 0 -63 3 -80 6 -27 6
-32 11 -29 33 2 18 -2 27 -14 29 -10 2 -18 2 -18 0z"/>
<path d="M9702 1078 c11 -35 146 -65 164 -37 12 20 -19 30 -72 24 -41 -5 -53
-3 -57 9 -7 19 -40 22 -35 4z"/>
<path d="M4340 1060 c0 -13 5 -20 13 -17 6 2 12 10 12 17 0 7 -6 15 -12 18 -8
2 -13 -5 -13 -18z"/>
<path d="M9906 1014 c-3 -9 -6 -18 -6 -20 0 -9 103 -3 122 7 30 16 5 29 -58
29 -38 0 -53 -4 -58 -16z"/>
<path d="M12466 962 c-8 -13 5 -52 15 -46 12 7 12 54 0 54 -6 0 -12 -4 -15 -8z"/>
<path d="M9449 883 c-10 -11 -24 -14 -52 -10 -39 5 -97 -8 -97 -23 0 -4 14
-10 30 -13 37 -8 39 -24 4 -37 -15 -6 -22 -15 -18 -21 8 -13 229 -7 242 6 4 3
-1 12 -11 19 -9 7 -17 16 -17 20 0 4 -15 22 -34 41 -30 30 -36 32 -47 18z"/>
<path d="M4370 874 c0 -13 21 -44 30 -44 6 0 19 9 29 19 19 19 19 19 -2 25
-28 7 -57 8 -57 0z"/>
<path d="M4600 821 l-45 -7 35 -8 c45 -9 115 -4 115 9 0 12 -45 15 -105 6z"/>
<path d="M4438 793 c-10 -2 -18 -12 -18 -21 0 -34 18 -45 72 -48 207 -10 218
-8 218 27 0 17 -8 19 -90 19 -71 0 -92 3 -96 15 -6 15 -47 18 -86 8z"/>
<path d="M9537 703 c-15 -2 -32 -13 -37 -24 -6 -10 -21 -19 -34 -19 -13 0 -29
-6 -35 -14 -7 -8 -27 -17 -46 -20 -21 -4 -35 -13 -35 -22 0 -12 16 -14 97 -12
l98 3 10 30 c5 17 15 34 22 38 17 10 17 47 1 46 -7 -1 -25 -4 -41 -6z"/>
<path d="M4435 658 l-27 -21 21 -17 c23 -17 29 -43 16 -73 -7 -16 1 -17 111
-15 71 2 119 7 119 13 0 6 -20 11 -45 13 -95 6 -92 24 6 32 105 8 70 25 -53
25 -62 1 -115 4 -119 7 -13 13 7 26 51 32 56 9 50 26 -9 26 -29 0 -52 -7 -71
-22z"/>
<path d="M9295 550 c-4 -6 1 -12 9 -15 9 -3 23 -7 32 -10 28 -9 3 -25 -39 -25
-51 0 -70 -11 -65 -36 3 -18 13 -19 163 -15 88 2 163 6 168 10 4 4 -4 20 -19
36 -19 21 -23 30 -13 36 8 4 11 10 9 12 -11 10 -240 16 -245 7z"/>
<path d="M4440 491 c0 -13 38 -21 105 -21 67 0 102 13 63 23 -35 10 -168 8
-168 -2z"/>
<path d="M4531 409 c-111 -8 -125 -11 -145 -32 -12 -13 -29 -26 -37 -29 -34
-12 9 -17 219 -24 196 -6 222 -5 222 8 0 22 -21 28 -93 28 -44 0 -58 3 -47 10
8 5 36 10 63 10 33 0 47 4 47 14 0 28 -16 29 -229 15z"/>
<path d="M9395 390 c3 -5 33 -10 65 -10 58 0 85 -12 54 -24 -9 -3 -58 -6 -109
-6 -89 0 -120 -9 -93 -27 7 -4 64 -6 126 -4 73 2 117 -1 126 -8 11 -9 15 -3
20 29 3 23 4 45 1 51 -4 5 -49 9 -101 9 -61 0 -93 -4 -89 -10z"/>
<path d="M4443 283 c-133 -5 -117 -23 20 -23 112 0 163 11 115 23 -12 4 -27 6
-33 5 -5 -1 -52 -4 -102 -5z"/>
<path d="M9530 280 c-8 -5 -56 -10 -106 -10 -100 0 -140 -14 -110 -39 18 -15
320 -29 353 -17 17 7 17 8 -2 22 -11 8 -36 19 -57 25 -21 5 -38 14 -38 19 0
13 -21 12 -40 0z"/>
<path d="M4356 223 c-31 -31 42 -49 157 -38 80 7 111 19 89 34 -16 10 -236 14
-246 4z"/>
<path d="M9423 153 c-7 -2 -13 -13 -13 -24 0 -18 8 -19 119 -19 69 0 122 4
126 10 3 6 15 10 26 10 30 0 22 17 -12 24 -37 7 -228 7 -246 -1z"/>
<path d="M4358 133 c-21 -2 -38 -9 -38 -14 0 -13 289 -7 293 6 2 10 -182 16
-255 8z"/>
<path d="M4328 68 c-7 -4 -21 -9 -30 -12 -71 -22 55 -36 320 -36 148 0 174 2
179 16 13 35 -12 39 -237 39 -120 0 -224 -3 -232 -7z"/>
<path d="M9565 70 c-8 -13 -11 -12 58 -14 55 -2 73 6 41 18 -25 10 -92 7 -99
-4z"/>
<path d="M9375 11 c-4 -8 42 -11 149 -11 86 0 156 3 156 8 0 12 -297 15 -305
3z"/>
</g>
</svg>
