 <svg  version="1.0" xmlns="http://www.w3.org/2000/svg"  width="300.000000pt" height="312.000000pt" viewBox="0 0 300.000000 312.000000"  preserveAspectRatio="xMidYMid meet">  <g transform="translate(0.000000,312.000000) scale(0.100000,-0.100000)" fill="#ffffff" stroke="none"> <path d="M2139 3012 c-19 -26 -94 -61 -110 -51 -15 9 -29 3 -29 -13 0 -5 7 -8 15 -4 13 5 14 2 4 -17 -12 -21 -11 -21 8 -4 34 29 33 19 -2 -33 -34 -51 -52 -107 -42 -132 3 -7 6 -1 6 14 1 39 22 80 38 74 10 -4 11 -1 3 13 -8 16 -3 25 30 55 42 38 60 45 61 24 0 -7 4 -3 9 10 8 19 32 28 63 23 5 -1 5 4 1 10 -5 9 -1 10 14 7 12 -4 22 -2 22 4 0 6 -11 8 -25 4 -14 -3 -37 -8 -52 -11 -23 -4 -25 -4 -8 4 14 7 15 10 5 10 -13 1 -13 2 0 11 8 5 12 12 8 15 -3 4 -12 -2 -19 -13z m-9 -37 c0 -8 -61 -37 -67 -32 -3 3 8 12 24 21 29 16 43 19 43 11z"/> <path d="M2386 3013 c-5 -12 -1 -14 14 -10 11 3 18 1 15 -3 -3 -5 3 -11 14 -15 11 -3 33 -20 50 -37 24 -25 31 -40 30 -67 -2 -33 -2 -34 -6 -7 -7 46 -30 73 -86 101 -40 20 -64 25 -116 24 l-66 -2 50 -6 c28 -4 56 -10 64 -15 10 -6 12 -5 7 2 -9 15 -5 15 29 2 17 -6 25 -16 22 -24 -3 -8 1 -17 10 -20 11 -4 14 -2 9 9 -9 23 8 18 36 -12 17 -20 24 -38 23 -61 -2 -26 1 -32 14 -30 20 4 26 51 11 88 -6 15 -27 36 -45 46 -19 10 -33 22 -32 27 1 5 -8 13 -20 17 -16 7 -23 5 -27 -7z"/> <path d="M2248 3013 c23 -2 61 -2 85 0 23 2 4 4 -43 4 -47 0 -66 -2 -42 -4z"/> <path d="M742 2903 c-7 -3 -24 -16 -38 -30 -14 -14 -31 -22 -39 -19 -9 3 -12 0 -8 -10 4 -10 0 -12 -11 -8 -12 5 -15 2 -10 -10 6 -15 -4 -20 -32 -17 -7 1 -11 -7 -10 -16 1 -13 -5 -17 -24 -16 -14 1 -19 0 -12 -3 9 -4 0 -16 -25 -34 -21 -16 -41 -26 -45 -24 -5 3 -8 -1 -8 -8 0 -9 -3 -9 -10 2 -6 10 -10 11 -10 3 0 -7 -8 -13 -17 -13 -14 0 -15 -2 -4 -9 10 -6 5 -11 -19 -16 -28 -6 -31 -9 -16 -17 12 -6 22 -6 32 3 8 6 16 10 19 8 2 -3 -25 -26 -61 -53 -36 -26 -68 -46 -70 -43 -3 3 15 19 41 37 26 18 44 35 41 38 -3 3 -17 -5 -31 -18 -16 -15 -31 -21 -45 -17 -17 4 -19 3 -10 -8 8 -10 8 -14 -1 -17 -8 -3 -10 -11 -6 -22 6 -14 10 -16 21 -7 9 8 17 8 20 2 3 -5 1 -12 -4 -14 -6 -3 -5 -4 2 -3 7 1 14 12 16 24 2 12 13 27 25 34 12 6 24 14 27 17 8 10 69 51 75 51 3 0 3 -4 0 -10 -4 -6 1 -7 11 -3 11 4 13 8 6 11 -7 2 -9 8 -6 13 3 6 12 5 22 -3 15 -11 15 -11 4 3 -11 15 -10 17 13 15 14 0 25 -5 25 -10 0 -5 3 -6 6 -3 4 4 1 13 -5 21 -10 12 -8 17 8 25 11 6 27 18 35 27 15 14 18 14 36 -8 l19 -23 1 23 c0 14 -6 22 -17 22 -15 0 -16 2 -3 9 8 6 18 8 22 5 4 -3 20 2 35 10 16 8 22 15 15 16 -19 0 -11 33 9 35 12 2 16 -9 18 -52 1 -33 -3 -61 -11 -70 -10 -13 -10 -17 -1 -20 9 -3 10 -10 3 -24 -6 -11 -7 -19 -1 -19 16 0 21 29 21 121 0 100 -6 106 -55 61 -52 -47 -116 -95 -121 -89 -5 5 157 139 176 145 5 2 11 -45 13 -105 l3 -108 0 109 c-1 107 -5 121 -34 109z m-162 -157 c0 -6 -105 -76 -114 -76 -3 0 -6 7 -6 16 0 8 4 13 9 9 6 -3 29 8 53 24 41 29 58 37 58 27z"/> <path d="M1987 2880 c-9 -11 -17 -28 -18 -38 0 -16 -1 -16 -7 0 -4 10 -7 -34 -7 -97 0 -63 3 -115 6 -115 4 0 9 -8 13 -17 8 -26 28 -54 51 -75 22 -19 40 -24 30 -8 -7 11 8 14 19 3 3 -4 -4 -13 -16 -20 -13 -7 -17 -13 -10 -14 6 -1 17 -3 22 -4 6 -1 14 -3 19 -4 4 0 7 -11 6 -23 -1 -13 0 -15 2 -6 3 13 9 16 21 10 9 -5 49 -9 87 -11 39 -1 82 -4 98 -7 15 -2 27 0 27 6 0 5 7 10 16 10 8 0 12 -4 9 -10 -3 -5 -1 -10 5 -10 7 0 10 6 7 14 -7 17 18 40 33 31 6 -4 9 -2 8 3 -2 5 10 21 25 36 15 14 25 26 22 26 -3 0 2 11 11 25 14 21 19 23 33 13 14 -12 14 -11 2 4 -11 15 -11 22 3 43 9 13 16 31 16 39 0 8 5 18 10 21 19 12 4 -465 -15 -483 -3 -3 -5 2 -5 11 0 10 -4 17 -10 17 -6 0 -5 -10 2 -25 6 -14 15 -22 20 -17 16 16 27 158 28 332 0 180 -7 222 -28 175 -7 -14 -12 -30 -12 -36 0 -12 -60 -103 -90 -138 -37 -42 -32 -15 5 29 43 51 70 100 55 100 -5 0 -16 -15 -24 -32 -16 -40 -49 -78 -65 -78 -7 0 -10 -4 -6 -9 3 -5 -7 -19 -21 -30 -30 -24 -49 -27 -41 -8 3 8 -3 14 -14 14 -17 2 -18 0 -4 -14 9 -8 13 -18 10 -21 -3 -4 -10 0 -15 8 -7 11 -10 12 -10 2 0 -10 -15 -13 -57 -11 -64 3 -123 18 -123 31 0 4 -7 8 -15 8 -8 0 -15 3 -15 8 0 4 -12 12 -26 19 -22 10 -24 10 -14 -3 8 -8 8 -14 2 -14 -5 0 -24 21 -41 47 -29 43 -31 52 -31 137 0 68 5 102 20 134 22 48 21 50 -3 22z m134 -377 c21 -11 65 -19 111 -21 66 -4 83 -1 114 17 20 12 39 20 41 17 3 -3 -10 -14 -28 -25 -58 -36 -224 -26 -269 15 -19 19 -10 18 31 -3z"/> <path d="M2526 2821 c-4 -26 -12 -41 -24 -44 -13 -4 -12 -5 5 -6 16 -1 23 6 28 32 4 17 12 38 17 45 8 8 6 12 -4 12 -10 0 -18 -14 -22 -39z"/> <path d="M2557 2561 c2 -151 4 -276 6 -278 7 -7 6 421 -1 487 -4 36 -6 -58 -5 -209z"/> <path d="M2511 2745 c-1 -14 -4 -16 -9 -8 -5 8 -8 -2 -9 -24 l-1 -38 14 34 c8 19 12 39 10 45 -2 6 -5 2 -5 -9z"/> <path d="M1980 2655 c0 -19 43 -80 48 -67 2 7 -3 19 -11 25 -8 7 -19 21 -25 32 -6 11 -12 16 -12 10z"/> <path d="M732 2594 c-3 -31 9 -84 17 -79 4 2 8 25 8 52 1 44 0 45 -6 13 l-8 -35 -5 35 c-2 19 -6 25 -6 14z"/> <path d="M714 2482 c-1 -41 0 -50 6 -32 l8 25 1 -27 c1 -16 5 -28 9 -28 10 0 9 36 -1 46 -4 4 -7 22 -7 41 0 58 -15 36 -16 -25z"/> <path d="M696 2373 c-10 -35 -17 -183 -9 -183 13 0 33 22 33 37 0 7 -4 13 -10 13 -5 0 -10 -7 -10 -17 0 -9 -2 -14 -5 -12 -2 3 0 43 5 89 8 84 7 109 -4 73z"/> <path d="M717 2370 c-4 -14 -6 -36 -6 -50 1 -18 4 -14 10 14 10 44 6 75 -4 36z"/> <path d="M2541 2223 c-1 -14 5 -23 14 -23 8 0 15 5 15 11 0 5 -4 8 -9 4 -5 -3 -12 3 -14 12 -4 14 -5 13 -6 -4z"/> <path d="M1115 2204 c-19 -15 -18 -16 17 -12 21 2 39 -1 41 -6 2 -6 6 -3 9 6 5 11 0 18 -13 21 -10 3 -19 1 -19 -4 0 -5 -5 -9 -11 -9 -5 0 -7 5 -4 10 8 14 4 12 -20 -6z"/> <path d="M934 2188 c-7 -10 69 -9 121 1 33 7 25 8 -38 7 -44 -1 -81 -4 -83 -8z"/> <path d="M533 2178 c-2 -5 82 -8 186 -8 105 0 191 3 191 8 0 4 -84 7 -186 7 -102 0 -188 -3 -191 -7z"/> <path d="M1896 2154 c1 -32 14 -64 14 -35 0 7 7 11 15 8 8 -4 17 -2 20 3 3 5 -3 11 -12 13 -18 4 14 2 127 -10 30 -3 52 -3 49 1 -4 4 -22 8 -40 10 -102 10 -158 19 -154 26 3 4 -1 10 -8 13 -8 3 -12 -6 -11 -29z"/> <path d="M2500 2175 c0 -23 -45 -36 -106 -32 -30 2 -57 0 -60 -5 -7 -12 124 -10 146 2 23 13 46 50 30 50 -5 0 -10 -7 -10 -15z"/> <path d="M2524 2165 c-9 -14 -14 -28 -11 -31 3 -3 8 4 12 15 3 12 11 19 16 16 5 -4 9 1 9 9 0 22 -7 20 -26 -9z"/> <path d="M990 2170 c-30 -4 -48 -8 -40 -9 21 -4 71 -1 94 6 12 3 16 1 12 -6 -4 -6 0 -11 9 -11 9 0 14 4 11 8 -3 5 11 8 30 7 20 0 38 3 40 7 6 9 -74 8 -156 -2z"/> <path d="M613 2153 c59 -2 154 -2 210 0 56 1 8 3 -108 3 -115 0 -161 -2 -102 -3z"/> <path d="M1963 2117 c-3 -5 -2 -11 1 -14 3 -4 6 -1 6 5 0 16 27 15 33 0 4 -10 6 -10 6 0 1 7 5 11 10 8 14 -9 462 -9 471 0 5 5 -110 9 -256 9 -146 0 -268 -4 -271 -8z"/> <path d="M2160 1510 l-55 -7 50 -1 c46 -2 125 -35 112 -48 -2 -3 -20 4 -38 15 -22 13 -49 20 -74 19 l-40 -1 38 -4 c20 -2 37 -7 37 -11 0 -4 10 -18 21 -32 14 -16 19 -19 15 -7 -3 11 0 17 9 17 8 0 15 -5 15 -12 0 -6 3 -9 6 -5 12 11 45 -29 38 -47 -4 -11 -2 -16 6 -14 18 4 54 -103 38 -114 -10 -6 -10 -8 0 -8 9 0 12 -20 11 -78 -2 -78 -19 -136 -33 -113 -4 6 -12 11 -18 11 -6 0 -3 -10 8 -21 14 -16 16 -23 6 -26 -6 -3 -10 -9 -6 -14 3 -5 0 -9 -5 -9 -6 0 -11 -6 -11 -12 -1 -7 -19 -31 -42 -53 -22 -22 -38 -32 -35 -23 4 10 1 20 -5 24 -7 5 -9 -2 -6 -20 4 -20 0 -31 -16 -41 -25 -18 -40 -19 -30 -3 4 7 3 8 -5 4 -6 -4 -9 -11 -6 -16 9 -15 -27 -29 -41 -16 -6 6 -21 18 -33 26 -11 8 -21 20 -21 27 0 7 -6 13 -13 13 -7 0 -18 5 -25 12 -9 9 -7 17 11 37 20 22 21 24 2 16 -11 -4 -28 -10 -38 -13 -16 -4 -10 -13 34 -58 29 -30 49 -54 43 -54 -5 0 -36 27 -69 60 -47 47 -66 60 -90 60 -69 0 -96 -60 -58 -133 27 -54 39 -58 133 -54 49 3 74 1 60 -3 -14 -4 -55 -8 -91 -9 -56 -1 -68 2 -86 22 -32 35 -43 62 -43 111 0 35 5 48 22 60 27 19 89 21 106 4 9 -9 15 -9 23 -1 17 17 -77 29 -114 15 -17 -6 -33 -9 -37 -7 -13 8 -12 -126 2 -142 11 -14 10 -15 -12 -10 -14 4 -19 4 -12 1 6 -3 12 -13 13 -22 0 -10 3 -12 5 -5 7 17 44 -16 37 -33 -3 -8 0 -14 7 -14 6 0 8 4 5 10 -3 6 -2 10 4 10 5 0 13 -5 16 -10 4 -6 11 -8 16 -5 5 4 9 1 9 -6 0 -10 3 -10 12 -1 7 7 30 12 52 12 21 0 64 8 94 17 51 16 55 16 67 0 6 -9 15 -14 18 -10 4 3 1 13 -6 21 -10 13 -9 15 6 9 19 -7 24 9 5 16 -10 4 -10 6 0 6 6 1 13 0 15 -1 1 -2 20 14 42 35 21 20 45 37 53 37 7 0 11 4 7 9 -3 5 -1 12 5 16 5 3 10 2 10 -3 0 -19 26 -20 27 -1 1 10 -3 19 -9 19 -6 0 -3 9 7 20 10 11 14 20 9 20 -5 0 -2 6 6 13 14 11 25 37 16 37 -8 0 -49 -73 -49 -86 0 -7 -3 -12 -7 -11 -7 2 -105 -71 -140 -104 -10 -9 -35 -19 -56 -23 -35 -6 -37 -5 -16 7 21 12 21 14 5 30 -10 9 -12 17 -6 17 6 0 16 -7 23 -15 11 -14 17 -13 47 5 71 42 135 105 171 170 34 60 37 73 43 170 l6 105 -2 -105 c-1 -58 -5 -116 -9 -130 -7 -23 -6 -24 7 -7 20 24 19 243 0 240 -7 -2 -13 5 -13 15 -1 25 -38 103 -63 131 -14 16 -17 22 -7 19 21 -6 58 -64 70 -110 7 -23 15 -36 22 -32 7 4 6 9 -2 14 -7 4 -10 15 -7 24 4 9 3 16 -2 16 -5 0 -11 9 -14 21 -4 15 -2 19 9 15 8 -3 14 -1 14 3 0 14 -28 21 -34 8 -2 -7 -5 -4 -5 6 -1 9 -6 17 -12 17 -5 0 -7 6 -3 13 4 6 3 9 -1 4 -13 -11 -44 23 -38 41 4 15 3 15 -6 2 -9 -12 -13 -13 -20 -2 -4 8 -11 13 -15 13 -20 -3 -26 0 -21 9 3 6 5 9 3 8 -2 -1 -28 -4 -58 -8z m-270 -562 c0 6 8 12 18 12 27 -1 52 -25 48 -47 -3 -12 1 -20 9 -20 8 0 12 4 9 9 -15 24 18 2 60 -41 48 -49 48 -61 -2 -61 -14 0 -15 2 -2 9 8 6 18 7 24 4 5 -3 6 -1 3 5 -9 14 -47 3 -47 -14 0 -10 -14 -14 -52 -14 -61 0 -105 26 -95 54 4 9 3 15 -2 12 -11 -7 -21 18 -21 54 0 32 29 57 42 37 6 -9 8 -9 8 1z"/> <path d="M636 1493 c-4 -9 -9 -13 -12 -10 -4 3 -15 -4 -25 -16 -15 -19 -21 -20 -38 -9 -12 7 -21 8 -21 3 0 -5 5 -11 11 -13 16 -5 -1 -36 -19 -34 -21 4 -53 -15 -46 -26 3 -5 10 -6 15 -3 16 10 10 -11 -16 -56 -14 -24 -24 -51 -24 -59 0 -8 9 5 20 29 11 24 22 41 25 38 3 -3 1 -15 -6 -26 -6 -12 -8 -26 -5 -31 3 -6 2 -10 -3 -10 -5 0 -14 -17 -20 -39 -15 -47 -15 -51 -2 -51 5 0 9 3 8 8 -1 4 1 22 5 41 6 27 10 32 19 23 7 -7 17 -12 22 -12 7 0 7 3 -1 8 -18 11 -18 34 0 72 21 47 49 77 69 77 10 0 15 -4 12 -8 -5 -9 15 -24 22 -16 9 9 -8 35 -27 40 -13 4 -29 -7 -54 -36 -19 -22 -35 -36 -35 -29 0 6 5 14 11 17 6 4 8 13 5 21 -3 7 0 16 6 20 7 5 8 2 3 -7 -4 -8 10 2 31 23 21 20 54 45 72 56 24 14 29 21 18 25 -8 3 -17 -1 -20 -10z"/> <path d="M723 1503 c26 -2 67 -2 90 0 23 2 2 3 -48 3 -49 0 -68 -1 -42 -3z"/> <path d="M880 1490 l25 -19 -28 3 c-15 1 -30 6 -34 9 -3 4 -11 7 -17 7 -5 0 -1 -6 9 -14 11 -8 26 -11 34 -8 8 3 12 1 8 -5 -4 -6 2 -18 13 -28 26 -24 28 -101 3 -122 -17 -14 -17 -14 0 -9 10 3 22 6 26 6 5 0 7 10 5 23 -11 82 -12 107 -1 100 7 -3 3 3 -7 15 -20 23 -9 31 12 10 7 -7 12 -8 12 -2 0 10 -61 54 -76 54 -5 0 2 -9 16 -20z"/> <path d="M2049 1467 c-10 -24 -10 -30 2 -38 9 -6 15 -4 17 6 2 9 8 12 14 9 6 -4 8 -2 4 4 -3 6 2 15 11 21 10 6 13 11 6 11 -6 0 -15 -4 -18 -10 -3 -5 -12 -10 -18 -10 -7 1 -2 9 11 20 21 18 22 19 3 17 -12 -1 -25 -13 -32 -30z"/> <path d="M688 1455 c15 -13 31 -21 36 -17 6 3 5 7 -2 10 -18 6 -15 20 6 24 9 3 -2 5 -24 5 l-42 0 26 -22z"/> <path d="M775 1473 c11 -3 25 -10 30 -15 7 -7 7 -9 0 -5 -6 3 -17 2 -25 -3 -10 -6 -1 -8 25 -7 29 1 39 -2 37 -11 -1 -8 2 -11 8 -7 17 10 39 -13 33 -35 -3 -11 0 -20 6 -20 19 0 12 36 -11 57 -30 27 -83 53 -105 52 -15 -1 -15 -2 2 -6z"/> <path d="M615 1444 l-30 -25 33 17 c17 10 32 22 32 26 0 12 -2 11 -35 -18z"/> <path d="M956 1451 c-3 -4 3 -16 14 -26 11 -10 20 -23 20 -28 0 -6 -12 0 -27 14 l-27 24 27 -37 c28 -38 34 -54 17 -43 -5 3 -10 1 -10 -4 0 -6 5 -11 10 -11 6 0 13 0 18 0 13 -1 40 -64 36 -84 -3 -15 -1 -17 8 -8 9 9 5 25 -17 70 -40 77 -39 76 -25 67 7 -4 25 -35 40 -68 l28 -61 -2 42 c0 30 -4 41 -13 37 -17 -6 -17 7 0 24 10 11 9 13 -5 8 -24 -8 -52 31 -36 50 7 9 7 13 0 13 -6 0 -12 -6 -15 -12 -3 -8 -9 -1 -16 15 -11 29 -16 32 -25 18z"/> <path d="M441 1204 c-7 -26 -9 -49 -6 -52 3 -3 5 1 6 9 0 8 4 4 9 -8 11 -28 29 -30 27 -4 0 11 -6 19 -12 18 -6 -1 -9 15 -7 41 1 23 1 42 -2 42 -2 0 -9 -21 -15 -46z"/> <path d="M1074 1073 l-1 -178 7 130 7 130 -1 -152 c-1 -83 2 -146 6 -140 4 7 8 22 8 35 0 12 6 22 13 22 9 0 9 2 -1 9 -9 5 -13 39 -13 117 -1 159 -3 193 -11 188 -3 -2 -8 0 -10 6 -2 6 -3 -70 -4 -167z"/> <path d="M1046 1232 c-4 -6 0 -24 8 -39 13 -23 15 -24 15 -8 -1 32 -14 61 -23 47z"/> <path d="M410 1133 c13 -6 13 -156 -1 -170 -8 -8 -8 -13 0 -18 17 -10 22 15 19 105 -2 58 -7 84 -16 86 -7 1 -8 0 -2 -3z"/> <path d="M445 1025 c1 -101 14 -136 73 -197 20 -21 31 -38 25 -38 -18 0 -80 76 -93 114 -11 35 -30 41 -30 10 0 -8 5 -12 10 -9 11 7 12 -2 12 -50 -1 -29 -1 -29 7 -5 6 17 9 19 10 8 1 -10 5 -18 9 -18 5 0 15 -11 22 -25 7 -14 17 -25 22 -25 5 0 26 -11 48 -25 22 -14 45 -25 52 -25 7 1 -4 10 -25 21 -22 11 -37 23 -34 25 3 3 19 -2 37 -11 18 -9 34 -14 37 -12 2 3 -9 11 -26 18 -21 9 -26 16 -18 22 8 6 7 7 -5 4 -9 -3 -19 1 -22 9 -3 8 -11 13 -17 12 -7 -2 -18 8 -26 22 -7 14 -13 21 -13 15 -1 -5 -10 8 -21 30 -11 22 -18 50 -16 62 2 12 0 20 -4 17 -4 -2 -10 28 -12 68 -3 57 -4 53 -2 -17z"/> <path d="M2634 977 c7 -23 -11 -60 -26 -51 -7 5 -8 2 -3 -5 9 -16 -94 -118 -129 -127 -15 -3 -26 -10 -26 -15 0 -5 13 -3 30 6 36 18 51 19 27 1 -16 -13 -16 -14 0 -27 15 -12 16 -12 10 4 -3 9 -3 17 2 17 4 0 18 9 31 20 19 17 24 17 37 5 18 -19 20 -19 20 3 0 9 -5 20 -11 24 -8 6 -8 8 1 8 6 0 23 21 37 46 14 26 19 41 11 34 -18 -15 -19 -7 -4 22 8 15 13 17 19 9 5 -9 9 -6 13 9 4 17 2 20 -10 15 -9 -3 -21 0 -26 7 -6 9 -7 8 -3 -5z m-17 -95 c-10 -10 -14 -22 -10 -27 5 -4 3 -5 -3 -2 -6 3 -24 -7 -39 -23 -16 -17 -33 -30 -39 -30 -6 0 14 25 44 55 29 30 56 52 59 50 2 -3 -3 -13 -12 -23z"/> <path d="M1050 866 c0 -8 -3 -23 -6 -33 -5 -16 -4 -16 10 1 18 22 21 46 6 46 -5 0 -10 -6 -10 -14z"/> <path d="M2106 871 c-3 -5 1 -11 9 -15 9 -3 15 0 15 9 0 16 -16 20 -24 6z"/> <path d="M1058 812 c-8 -15 -13 -33 -11 -39 3 -7 0 -13 -7 -13 -6 0 -8 5 -4 11 5 8 1 8 -14 0 -35 -19 -38 -12 -7 13 24 20 28 27 18 37 -11 11 -13 10 -13 -2 0 -22 -32 -49 -58 -49 -12 0 -22 -4 -22 -10 0 -18 -76 -28 -192 -25 -66 1 -115 -2 -112 -7 3 -4 10 -5 16 -2 7 4 8 -2 3 -17 -7 -22 -7 -22 10 -6 13 13 26 16 53 11 21 -4 45 -8 55 -10 9 -1 17 1 17 7 0 5 17 9 38 9 35 0 87 13 147 35 20 8 20 8 0 -8 -20 -16 -20 -16 3 -10 12 3 25 9 28 14 3 5 10 9 15 9 6 0 7 -4 4 -10 -3 -5 -2 -10 4 -10 5 0 13 5 16 10 4 6 11 8 16 4 6 -3 7 4 4 19 -4 15 -1 30 9 40 9 9 12 18 8 21 -5 3 -15 -7 -24 -22z m-280 -89 c-10 -2 -26 -2 -35 0 -10 3 -2 5 17 5 19 0 27 -2 18 -5z"/> <path d="M672 778 c2 -7 -5 -12 -14 -12 -10 1 -18 -2 -18 -7 0 -5 6 -9 14 -9 8 0 20 -2 28 -3 7 -2 10 -2 6 0 -4 2 -5 10 -2 18 3 7 0 16 -6 20 -6 4 -9 1 -8 -7z"/> <path d="M2220 772 c0 -13 50 -22 123 -22 81 0 66 11 -20 14 -37 1 -76 6 -85 10 -11 5 -18 4 -18 -2z"/> <path d="M2445 755 c-17 -8 -64 -14 -107 -15 -43 0 -78 -3 -78 -7 0 -5 42 -5 92 -1 125 10 143 13 141 24 -3 14 -16 13 -48 -1z"/> <path d="M2195 750 c3 -5 18 -10 33 -9 24 0 25 1 7 9 -28 12 -47 12 -40 0z"/> <path d="M911 721 c-14 -4 -26 -13 -29 -21 -3 -12 -1 -12 6 -2 5 8 23 11 48 9 21 -3 28 -2 15 0 -19 4 -21 7 -10 14 16 10 5 10 -30 0z"/> </g> </svg> 